<svg xmlns="http://www.w3.org/2000/svg" xmlns:xlink="http://www.w3.org/1999/xlink" width="224" height="224"><defs><circle id="a" cx="112" cy="112" r="112"/><rect id="c" width="103.4" height="83.5" x=".1" y="0" rx="3.1"/><path id="e" d="M4.8 4.2a242 242 0 0188.3 0c1.5.2 2.5 1.4 2.6 2.9a475.2 475.2 0 010 58.8c0 1.5-1.1 2.6-2.5 3a232.1 232.1 0 01-88.4-.1 3.1 3.1 0 01-2.5-2.6 189.2 189.2 0 010-59.4 3.1 3.1 0 012.5-2.6z"/></defs><g fill="none" fill-rule="evenodd"><g><mask id="b" fill="#fff"><use xlink:href="#a"/></mask><use fill="#FFE7A6" xlink:href="#a"/><g mask="url(#b)"><g transform="translate(-2 11)"><path fill="#4B0A00" d="M45 142h12v7H45zm30 0h12v7H75zm63 0h12v7h-12zm30 0h12v7h-12z"/><path fill="#4B0A00" d="M57.1 49.9h128.1L198 70c.3.5.5 1 .5 1.7v60c0 1-.5 1.9-1.2 2.5l-11.4 9.5H57a3.1 3.1 0 01-3.1-3.1V53c0-1.7 1.4-3.1 3.1-3.1z"/><rect width="139.6" height="94" x="33" y="49.9" fill="#E15300" rx="5.2"/><g transform="translate(38.1 55.1)"><mask id="d" fill="#fff"><use xlink:href="#c"/></mask><use fill="#171819" xlink:href="#c"/><path fill="#515357" d="M8.8 71.9L-2 85.6h110.2V20.5l-11 9.4v38.9z" mask="url(#d)"/></g><g transform="translate(43 60.4)"><mask id="f" fill="#fff"><use xlink:href="#e"/></mask><use fill="#3A3B3E" xlink:href="#e"/><g mask="url(#f)" opacity=".6"><path fill="#000" d="M-7 11.6h3v3h-3zm12 0h3v3H5z"/><path fill="#FFF" d="M-4 11.6h3v3h-3zm12 0h3v3H8z"/><path fill="#000" d="M-10 14.6h3v3h-3zm12 0h3v3H2z"/><path fill="#FFF" d="M-7 14.6h3v3h-3zm12 0h6v3H5z"/><path fill="#000" d="M-1 11.6h6v3h-6zm12 0h3v3h-3z"/><path fill="#FFF" d="M14 11.6h3v3h-3z"/><path fill="#000" d="M-4 14.6h3v3h-3z"/><path fill="#FFF" d="M-1 14.6h3v3h-3z"/><path fill="#000" d="M55 11.6h3v3h-3zm12 0h3v3h-3z"/><path fill="#FFF" d="M58 11.6h3v3h-3z"/><path fill="#000" d="M52 14.6h3v3h-3zm12 0h3v3h-3z"/><path fill="#FFF" d="M55 14.6h3v3h-3zm12 0h6v3h-6z"/><path fill="#000" d="M61 11.6h6v3h-6zm-3 3h3v3h-3z"/><path fill="#FFF" d="M61 14.6h3v3h-3zm-50 0h3v3h-3z"/><path fill="#000" d="M17 11.6h3v3h-3zm12 0h3v3h-3z"/><path fill="#FFF" d="M20 11.6h3v3h-3zm12 0h3v3h-3z"/><path fill="#000" d="M14 14.6h3v3h-3zm12 0h3v3h-3z"/><path fill="#FFF" d="M17 14.6h3v3h-3zm12 0h6v3h-6z"/><path fill="#000" d="M23 11.6h6v3h-6zm12 0h3v3h-3z"/><path fill="#FFF" d="M38 11.6h17v3H38z"/><path fill="#000" d="M20 14.6h3v3h-3z"/><path fill="#FFF" d="M23 14.6h3v3h-3z"/><path fill="#000" d="M35 14.6h17v3H35zm-36 3h3v3h-3zm12 0h3v3h-3z"/><path fill="#FFF" d="M2 17.6h3v3H2zm12 0h3v3h-3z"/><path fill="#000" d="M-4 20.6h3v3h-3zm12 0h3v3H8z"/><path fill="#FFF" d="M-1 20.6h3v3h-3zm12 0h6v3h-6z"/><path fill="#000" d="M5 17.6h6v3H5zm12 0h3v3h-3z"/><path fill="#FFF" d="M20 17.6h3v3h-3z"/><path fill="#000" d="M2 20.6h3v3H2z"/><path fill="#FFF" d="M5 20.6h3v3H5z"/><path fill="#000" d="M61 17.6h3v3h-3zm12 0h3v3h-3z"/><path fill="#FFF" d="M64 17.6h3v3h-3z"/><path fill="#000" d="M58 20.6h3v3h-3zm12 0h3v3h-3z"/><path fill="#FFF" d="M61 20.6h3v3h-3zm12 0h6v3h-6z"/><path fill="#000" d="M67 17.6h6v3h-6zm-3 3h3v3h-3z"/><path fill="#FFF" d="M67 20.6h3v3h-3zm-50 0h3v3h-3z"/><path fill="#000" d="M23 17.6h3v3h-3zm12 0h3v3h-3z"/><path fill="#FFF" d="M26 17.6h3v3h-3zm12 0h3v3h-3z"/><path fill="#000" d="M20 20.6h3v3h-3zm12 0h3v3h-3z"/><path fill="#FFF" d="M23 20.6h3v3h-3zm12 0h6v3h-6z"/><path fill="#000" d="M29 17.6h6v3h-6zm12 0h3v3h-3z"/><path fill="#FFF" d="M44 17.6h17v3H44z"/><path fill="#000" d="M26 20.6h3v3h-3z"/><path fill="#FFF" d="M29 20.6h3v3h-3z"/><path fill="#000" d="M35 20.6h17v3H35zm-52 3h3v3h-3zm12 0h3v3h-3z"/><path fill="#FFF" d="M-14 23.6h3v3h-3zm12 0h3v3h-3z"/><path fill="#000" d="M-20 26.6h3v3h-3zm12 0h3v3h-3z"/><path fill="#FFF" d="M-17 26.6h3v3h-3zm12 0h6v3h-6z"/><path fill="#000" d="M-11 23.6h6v3h-6zm12 0h3v3H1z"/><path fill="#FFF" d="M4 23.6h3v3H4z"/><path fill="#000" d="M-14 26.6h3v3h-3z"/><path fill="#FFF" d="M-11 26.6h3v3h-3z"/><path fill="#000" d="M45 23.6h3v3h-3zm12 0h3v3h-3z"/><path fill="#FFF" d="M48 23.6h3v3h-3z"/><path fill="#000" d="M42 26.6h3v3h-3zm12 0h3v3h-3z"/><path fill="#FFF" d="M45 26.6h3v3h-3zm12 0h6v3h-6z"/><path fill="#000" d="M51 23.6h6v3h-6zm-3 3h3v3h-3z"/><path fill="#FFF" d="M51 26.6h3v3h-3zm-50 0h3v3H1z"/><path fill="#000" d="M7 23.6h3v3H7zm12 0h3v3h-3z"/><path fill="#FFF" d="M10 23.6h3v3h-3zm12 0h3v3h-3z"/><path fill="#000" d="M4 26.6h3v3H4zm12 0h3v3h-3z"/><path fill="#FFF" d="M7 26.6h3v3H7zm12 0h6v3h-6z"/><path fill="#000" d="M13 23.6h6v3h-6zm12 0h3v3h-3z"/><path fill="#FFF" d="M28 23.6h17v3H28z"/><path fill="#000" d="M10 26.6h3v3h-3z"/><path fill="#FFF" d="M13 26.6h3v3h-3z"/><path fill="#000" d="M25 26.6h17v3H25zm-36 3h3v3h-3zm12 0h3v3H1z"/><path fill="#FFF" d="M-8 29.6h3v3h-3zm12 0h3v3H4z"/><path fill="#000" d="M-14 32.6h3v3h-3zm12 0h3v3h-3z"/><path fill="#FFF" d="M-11 32.6h3v3h-3zm12 0h6v3H1z"/><path fill="#000" d="M-5 29.6h6v3h-6zm12 0h3v3H7z"/><path fill="#FFF" d="M10 29.6h3v3h-3z"/><path fill="#000" d="M-8 32.6h3v3h-3z"/><path fill="#FFF" d="M-5 32.6h3v3h-3z"/><path fill="#000" d="M51 29.6h3v3h-3zm12 0h3v3h-3z"/><path fill="#FFF" d="M54 29.6h3v3h-3z"/><path fill="#000" d="M48 32.6h3v3h-3zm12 0h3v3h-3z"/><path fill="#FFF" d="M51 32.6h3v3h-3zm12 0h6v3h-6z"/><path fill="#000" d="M57 29.6h6v3h-6zm-3 3h3v3h-3z"/><path fill="#FFF" d="M57 32.6h3v3h-3zm-50 0h3v3H7z"/><path fill="#000" d="M13 29.6h3v3h-3zm12 0h3v3h-3z"/><path fill="#FFF" d="M16 29.6h3v3h-3zm12 0h3v3h-3z"/><path fill="#000" d="M10 32.6h3v3h-3zm12 0h3v3h-3z"/><path fill="#FFF" d="M13 32.6h3v3h-3zm12 0h6v3h-6z"/><path fill="#000" d="M19 29.6h6v3h-6zm12 0h3v3h-3z"/><path fill="#FFF" d="M34 29.6h17v3H34z"/><path fill="#000" d="M-7 62.6h3v3h-3zm12 0h3v3H5z"/><path fill="#FFF" d="M-4 62.6h3v3h-3zm12 0h3v3H8z"/><path fill="#000" d="M-10 65.6h3v3h-3zm12 0h3v3H2z"/><path fill="#FFF" d="M-7 65.6h3v3h-3zm12 0h6v3H5z"/><path fill="#000" d="M-1 62.6h6v3h-6zm12 0h3v3h-3z"/><path fill="#FFF" d="M14 62.6h3v3h-3z"/><path fill="#000" d="M-4 65.6h3v3h-3z"/><path fill="#FFF" d="M-1 65.6h3v3h-3z"/><path fill="#000" d="M55 62.6h3v3h-3zm12 0h3v3h-3z"/><path fill="#FFF" d="M58 62.6h3v3h-3z"/><path fill="#000" d="M52 65.6h3v3h-3zm12 0h3v3h-3z"/><path fill="#FFF" d="M55 65.6h3v3h-3zm12 0h6v3h-6z"/><path fill="#000" d="M61 62.6h6v3h-6zm-3 3h3v3h-3z"/><path fill="#FFF" d="M61 65.6h3v3h-3zm-50 0h3v3h-3z"/><path fill="#000" d="M17 62.6h3v3h-3zm12 0h3v3h-3z"/><path fill="#FFF" d="M20 62.6h3v3h-3zm12 0h3v3h-3z"/><path fill="#000" d="M14 65.6h3v3h-3zm12 0h3v3h-3z"/><path fill="#FFF" d="M17 65.6h3v3h-3zm12 0h6v3h-6z"/><path fill="#000" d="M23 62.6h6v3h-6zm12 0h3v3h-3z"/><path fill="#FFF" d="M38 62.6h17v3H38z"/><path fill="#000" d="M20 65.6h3v3h-3z"/><path fill="#FFF" d="M23 65.6h3v3h-3z"/><path fill="#000" d="M35 65.6h17v3H35zm-36 3h3v3h-3zm12 0h3v3h-3z"/><path fill="#FFF" d="M2 68.6h3v3H2zm12 0h3v3h-3z"/><path fill="#000" d="M-4 71.6h3v3h-3zm12 0h3v3H8z"/><path fill="#FFF" d="M-1 71.6h3v3h-3zm12 0h6v3h-6z"/><path fill="#000" d="M5 68.6h6v3H5zm12 0h3v3h-3z"/><path fill="#FFF" d="M20 68.6h3v3h-3z"/><path fill="#000" d="M2 71.6h3v3H2z"/><path fill="#FFF" d="M5 71.6h3v3H5z"/><path fill="#000" d="M61 68.6h3v3h-3zm12 0h3v3h-3z"/><path fill="#FFF" d="M64 68.6h3v3h-3z"/><path fill="#000" d="M58 71.6h3v3h-3zm12 0h3v3h-3z"/><path fill="#FFF" d="M61 71.6h3v3h-3zm12 0h6v3h-6z"/><path fill="#000" d="M67 68.6h6v3h-6zm-3 3h3v3h-3z"/><path fill="#FFF" d="M67 71.6h3v3h-3zm-50 0h3v3h-3z"/><path fill="#000" d="M23 68.6h3v3h-3zm12 0h3v3h-3z"/><path fill="#FFF" d="M26 68.6h3v3h-3zm12 0h3v3h-3z"/><path fill="#000" d="M20 71.6h3v3h-3zm12 0h3v3h-3z"/><path fill="#FFF" d="M23 71.6h3v3h-3zm12 0h6v3h-6z"/><path fill="#000" d="M29 68.6h6v3h-6zm12 0h3v3h-3z"/><path fill="#FFF" d="M44 68.6h17v3H44z"/><path fill="#000" d="M26 71.6h3v3h-3z"/><path fill="#FFF" d="M29 71.6h3v3h-3z"/><path fill="#000" d="M35 71.6h17v3H35zm-52 3h3v3h-3zm12 0h3v3h-3z"/><path fill="#FFF" d="M-14 74.6h3v3h-3zm12 0h3v3h-3z"/><path fill="#000" d="M-20 77.6h3v3h-3zm12 0h3v3h-3z"/><path fill="#FFF" d="M-17 77.6h3v3h-3zm12 0h6v3h-6z"/><path fill="#000" d="M-11 74.6h6v3h-6zm12 0h3v3H1z"/><path fill="#FFF" d="M4 74.6h3v3H4z"/><path fill="#000" d="M-14 77.6h3v3h-3z"/><path fill="#FFF" d="M-11 77.6h3v3h-3z"/><path fill="#000" d="M45 74.6h3v3h-3zm12 0h3v3h-3z"/><path fill="#FFF" d="M48 74.6h3v3h-3z"/><path fill="#000" d="M42 77.6h3v3h-3zm12 0h3v3h-3z"/><path fill="#FFF" d="M45 77.6h3v3h-3zm12 0h6v3h-6z"/><path fill="#000" d="M51 74.6h6v3h-6zm-3 3h3v3h-3z"/><path fill="#FFF" d="M51 77.6h3v3h-3zm-50 0h3v3H1z"/><path fill="#000" d="M7 74.6h3v3H7zm12 0h3v3h-3z"/><path fill="#FFF" d="M10 74.6h3v3h-3zm12 0h3v3h-3z"/><path fill="#000" d="M4 77.6h3v3H4zm12 0h3v3h-3z"/><path fill="#FFF" d="M7 77.6h3v3H7zm12 0h6v3h-6z"/><path fill="#000" d="M13 74.6h6v3h-6zm12 0h3v3h-3z"/><path fill="#FFF" d="M28 74.6h17v3H28z"/><path fill="#000" d="M10 77.6h3v3h-3z"/><path fill="#FFF" d="M13 77.6h3v3h-3z"/><path fill="#000" d="M25 77.6h17v3H25zm-36 3h3v3h-3zm12 0h3v3H1z"/><path fill="#FFF" d="M-8 80.6h3v3h-3zm12 0h3v3H4z"/><path fill="#000" d="M-5 80.6h6v3h-6zm12 0h3v3H7z"/><path fill="#FFF" d="M10 80.6h3v3h-3z"/><path fill="#000" d="M51 80.6h3v3h-3zm12 0h3v3h-3z"/><path fill="#FFF" d="M54 80.6h3v3h-3z"/><path fill="#000" d="M57 80.6h6v3h-6zm-44 0h3v3h-3zm12 0h3v3h-3z"/><path fill="#FFF" d="M16 80.6h3v3h-3zm12 0h3v3h-3z"/><path fill="#000" d="M19 80.6h6v3h-6zm12 0h3v3h-3z"/><path fill="#FFF" d="M34 80.6h17v3H34z"/><path fill="#000" d="M16 32.6h3v3h-3z"/><path fill="#FFF" d="M19 32.6h3v3h-3z"/><path fill="#000" d="M25 32.6h17v3H25zm-29 3h3v3h-3zm12 0h3v3H8z"/><path fill="#FFF" d="M-1 35.6h3v3h-3zm12 0h6v3h-6z"/><path fill="#000" d="M2 35.6h3v3H2z"/><path fill="#FFF" d="M5 35.6h3v3H5z"/><path fill="#000" d="M58 35.6h3v3h-3zm12 0h3v3h-3z"/><path fill="#FFF" d="M61 35.6h3v3h-3zm12 0h6v3h-6z"/><path fill="#000" d="M64 35.6h3v3h-3z"/><path fill="#FFF" d="M67 35.6h3v3h-3zm-50 0h3v3h-3z"/><path fill="#000" d="M20 35.6h3v3h-3zm12 0h3v3h-3z"/><path fill="#FFF" d="M23 35.6h3v3h-3zm12 0h6v3h-6z"/><path fill="#000" d="M26 35.6h3v3h-3z"/><path fill="#FFF" d="M29 35.6h3v3h-3z"/><path fill="#000" d="M35 35.6h17v3H35zm-52 3h3v3h-3zm12 0h3v3h-3z"/><path fill="#FFF" d="M-14 38.6h3v3h-3zm12 0h3v3h-3z"/><path fill="#000" d="M-20 41.6h3v3h-3zm12 0h3v3h-3z"/><path fill="#FFF" d="M-17 41.6h3v3h-3zm12 0h6v3h-6z"/><path fill="#000" d="M-11 38.6h6v3h-6zm12 0h3v3H1z"/><path fill="#FFF" d="M4 38.6h3v3H4z"/><path fill="#000" d="M-14 41.6h3v3h-3z"/><path fill="#FFF" d="M-11 41.6h3v3h-3z"/><path fill="#000" d="M45 38.6h3v3h-3zm12 0h3v3h-3z"/><path fill="#FFF" d="M48 38.6h3v3h-3z"/><path fill="#000" d="M42 41.6h3v3h-3zm12 0h3v3h-3z"/><path fill="#FFF" d="M45 41.6h3v3h-3zm12 0h6v3h-6z"/><path fill="#000" d="M51 38.6h6v3h-6zm-3 3h3v3h-3z"/><path fill="#FFF" d="M51 41.6h3v3h-3zm-50 0h3v3H1z"/><path fill="#000" d="M7 38.6h3v3H7zm12 0h3v3h-3z"/><path fill="#FFF" d="M10 38.6h3v3h-3zm12 0h3v3h-3z"/><path fill="#000" d="M4 41.6h3v3H4zm12 0h3v3h-3z"/><path fill="#FFF" d="M7 41.6h3v3H7zm12 0h6v3h-6z"/><path fill="#000" d="M13 38.6h6v3h-6zm12 0h3v3h-3z"/><path fill="#FFF" d="M28 38.6h17v3H28z"/><path fill="#000" d="M10 41.6h3v3h-3z"/><path fill="#FFF" d="M13 41.6h3v3h-3z"/><path fill="#000" d="M25 41.6h17v3H25zm-36 3h3v3h-3zm12 0h3v3H1z"/><path fill="#FFF" d="M-8 44.6h3v3h-3zm12 0h3v3H4z"/><path fill="#000" d="M-14 47.6h3v3h-3zm12 0h3v3h-3z"/><path fill="#FFF" d="M-11 47.6h3v3h-3zm12 0h6v3H1z"/><path fill="#000" d="M-5 44.6h6v3h-6zm12 0h3v3H7z"/><path fill="#FFF" d="M10 44.6h3v3h-3z"/><path fill="#000" d="M-8 47.6h3v3h-3z"/><path fill="#FFF" d="M-5 47.6h3v3h-3z"/><path fill="#000" d="M51 44.6h3v3h-3zm12 0h3v3h-3z"/><path fill="#FFF" d="M54 44.6h3v3h-3z"/><path fill="#000" d="M48 47.6h3v3h-3zm12 0h3v3h-3z"/><path fill="#FFF" d="M51 47.6h3v3h-3zm12 0h6v3h-6z"/><path fill="#000" d="M57 44.6h6v3h-6zm-3 3h3v3h-3z"/><path fill="#FFF" d="M57 47.6h3v3h-3zm-50 0h3v3H7z"/><path fill="#000" d="M13 44.6h3v3h-3zm12 0h3v3h-3z"/><path fill="#FFF" d="M16 44.6h3v3h-3zm12 0h3v3h-3z"/><path fill="#000" d="M10 47.6h3v3h-3zm12 0h3v3h-3z"/><path fill="#FFF" d="M13 47.6h3v3h-3zm12 0h6v3h-6z"/><path fill="#000" d="M19 44.6h6v3h-6zm12 0h3v3h-3z"/><path fill="#FFF" d="M34 44.6h17v3H34z"/><path fill="#000" d="M16 47.6h3v3h-3z"/><path fill="#FFF" d="M19 47.6h3v3h-3z"/><path fill="#000" d="M25 47.6h17v3H25zM63-.4h3v3h-3zM51-.4h3v3h-3z"/><path fill="#FFF" d="M60-.4h3v3h-3zM48-.4h3v3h-3z"/><path fill="#000" d="M66 2.6h3v3h-3zM54 2.6h3v3h-3z"/><path fill="#FFF" d="M63 2.6h3v3h-3zM48 2.6h6v3h-6z"/><path fill="#000" d="M54-.4h6v3h-6zM45-.4h3v3h-3z"/><path fill="#FFF" d="M42-.4h3v3h-3z"/><path fill="#000" d="M60 2.6h3v3h-3z"/><path fill="#FFF" d="M57 2.6h3v3h-3z"/><path fill="#000" d="M1-.4h3v3H1zM-11-.4h3v3h-3z"/><path fill="#FFF" d="M-2-.4h3v3h-3z"/><path fill="#000" d="M4 2.6h3v3H4zM-8 2.6h3v3h-3z"/><path fill="#FFF" d="M1 2.6h3v3H1zM-14 2.6h6v3h-6z"/><path fill="#000" d="M-8-.4h6v3h-6zM-2 2.6h3v3h-3z"/><path fill="#FFF" d="M-5 2.6h3v3h-3zM45 2.6h3v3h-3z"/><path fill="#000" d="M39-.4h3v3h-3zM27-.4h3v3h-3z"/><path fill="#FFF" d="M36-.4h3v3h-3zM24-.4h3v3h-3z"/><path fill="#000" d="M42 2.6h3v3h-3zM30 2.6h3v3h-3z"/><path fill="#FFF" d="M39 2.6h3v3h-3zM24 2.6h6v3h-6z"/><path fill="#000" d="M30-.4h6v3h-6zM21-.4h3v3h-3z"/><path fill="#FFF" d="M4-.4h17v3H4z"/><path fill="#000" d="M36 2.6h3v3h-3z"/><path fill="#FFF" d="M33 2.6h3v3h-3z"/><path fill="#000" d="M7 2.6h17v3H7zM57 5.6h3v3h-3zM45 5.6h3v3h-3z"/><path fill="#FFF" d="M54 5.6h3v3h-3zM42 5.6h3v3h-3z"/><path fill="#000" d="M60 8.6h3v3h-3zM48 8.6h3v3h-3z"/><path fill="#FFF" d="M57 8.6h3v3h-3zM42 8.6h6v3h-6z"/><path fill="#000" d="M48 5.6h6v3h-6zM39 5.6h3v3h-3z"/><path fill="#FFF" d="M36 5.6h3v3h-3z"/><path fill="#000" d="M54 8.6h3v3h-3z"/><path fill="#FFF" d="M51 8.6h3v3h-3z"/><path fill="#000" d="M-5 5.6h3v3h-3zM-17 5.6h3v3h-3z"/><path fill="#FFF" d="M-8 5.6h3v3h-3z"/><path fill="#000" d="M-2 8.6h3v3h-3zM-14 8.6h3v3h-3z"/><path fill="#FFF" d="M-5 8.6h3v3h-3zM-20 8.6h6v3h-6z"/><path fill="#000" d="M-14 5.6h6v3h-6zM-8 8.6h3v3h-3z"/><path fill="#FFF" d="M-11 8.6h3v3h-3zM39 8.6h3v3h-3z"/><path fill="#000" d="M33 5.6h3v3h-3zM21 5.6h3v3h-3z"/><path fill="#FFF" d="M30 5.6h3v3h-3zM18 5.6h3v3h-3z"/><path fill="#000" d="M36 8.6h3v3h-3zM24 8.6h3v3h-3z"/><path fill="#FFF" d="M33 8.6h3v3h-3zM18 8.6h6v3h-6z"/><path fill="#000" d="M24 5.6h6v3h-6zM15 5.6h3v3h-3z"/><path fill="#FFF" d="M-2 5.6h17v3H-2z"/><path fill="#000" d="M30 8.6h3v3h-3z"/><path fill="#FFF" d="M27 8.6h3v3h-3z"/><path fill="#000" d="M7 8.6h17v3H7zM73 83.6h3v3h-3zM61 83.6h3v3h-3z"/><path fill="#FFF" d="M70 83.6h3v3h-3zM58 83.6h3v3h-3z"/><path fill="#000" d="M76 86.6h3v3h-3zM64 86.6h3v3h-3z"/><path fill="#FFF" d="M73 86.6h3v3h-3zM58 86.6h6v3h-6z"/><path fill="#000" d="M64 83.6h6v3h-6zM55 83.6h3v3h-3z"/><path fill="#FFF" d="M52 83.6h3v3h-3z"/><path fill="#000" d="M70 86.6h3v3h-3z"/><path fill="#FFF" d="M67 86.6h3v3h-3z"/><path fill="#000" d="M11 83.6h3v3h-3zM-1 83.6h3v3h-3z"/><path fill="#FFF" d="M8 83.6h3v3H8z"/><path fill="#000" d="M14 86.6h3v3h-3zM2 86.6h3v3H2z"/><path fill="#FFF" d="M11 86.6h3v3h-3zM-4 86.6h6v3h-6z"/><path fill="#000" d="M2 83.6h6v3H2zM8 86.6h3v3H8z"/><path fill="#FFF" d="M5 86.6h3v3H5zM55 86.6h3v3h-3z"/><path fill="#000" d="M49 83.6h3v3h-3zM37 83.6h3v3h-3z"/><path fill="#FFF" d="M46 83.6h3v3h-3zM34 83.6h3v3h-3z"/><path fill="#000" d="M52 86.6h3v3h-3zM40 86.6h3v3h-3z"/><path fill="#FFF" d="M49 86.6h3v3h-3zM34 86.6h6v3h-6z"/><path fill="#000" d="M40 83.6h6v3h-6zM31 83.6h3v3h-3z"/><path fill="#FFF" d="M14 83.6h17v3H14z"/><path fill="#000" d="M46 86.6h3v3h-3z"/><path fill="#FFF" d="M43 86.6h3v3h-3z"/><path fill="#000" d="M17 86.6h17v3H17zM67 89.6h3v3h-3zM55 89.6h3v3h-3z"/><path fill="#FFF" d="M64 89.6h3v3h-3zM52 89.6h3v3h-3z"/><path fill="#000" d="M70 92.6h3v3h-3zM58 92.6h3v3h-3z"/><path fill="#FFF" d="M67 92.6h3v3h-3zM52 92.6h6v3h-6z"/><path fill="#000" d="M58 89.6h6v3h-6zM49 89.6h3v3h-3z"/><path fill="#FFF" d="M46 89.6h3v3h-3z"/><path fill="#000" d="M64 92.6h3v3h-3z"/><path fill="#FFF" d="M61 92.6h3v3h-3z"/><path fill="#000" d="M5 89.6h3v3H5zM-7 89.6h3v3h-3z"/><path fill="#FFF" d="M2 89.6h3v3H2z"/><path fill="#000" d="M8 92.6h3v3H8zM-4 92.6h3v3h-3z"/><path fill="#FFF" d="M5 92.6h3v3H5zM-10 92.6h6v3h-6z"/><path fill="#000" d="M-4 89.6h6v3h-6zM2 92.6h3v3H2z"/><path fill="#FFF" d="M-1 92.6h3v3h-3zM49 92.6h3v3h-3z"/><path fill="#000" d="M43 89.6h3v3h-3zM31 89.6h3v3h-3z"/><path fill="#FFF" d="M40 89.6h3v3h-3zM28 89.6h3v3h-3z"/><path fill="#000" d="M46 92.6h3v3h-3zM34 92.6h3v3h-3z"/><path fill="#FFF" d="M43 92.6h3v3h-3zM28 92.6h6v3h-6z"/><path fill="#000" d="M34 89.6h6v3h-6zM25 89.6h3v3h-3z"/><path fill="#FFF" d="M8 89.6h17v3H8z"/><path fill="#000" d="M40 92.6h3v3h-3z"/><path fill="#FFF" d="M37 92.6h3v3h-3z"/><path fill="#000" d="M17 92.6h17v3H17zM63 50.6h3v3h-3zM51 50.6h3v3h-3z"/><path fill="#FFF" d="M60 50.6h3v3h-3zM48 50.6h3v3h-3z"/><path fill="#000" d="M66 53.6h3v3h-3zM54 53.6h3v3h-3z"/><path fill="#FFF" d="M63 53.6h3v3h-3zM48 53.6h6v3h-6z"/><path fill="#000" d="M54 50.6h6v3h-6zM45 50.6h3v3h-3z"/><path fill="#FFF" d="M42 50.6h3v3h-3z"/><path fill="#000" d="M60 53.6h3v3h-3z"/><path fill="#FFF" d="M57 53.6h3v3h-3z"/><path fill="#000" d="M1 50.6h3v3H1zM-11 50.6h3v3h-3z"/><path fill="#FFF" d="M-2 50.6h3v3h-3z"/><path fill="#000" d="M4 53.6h3v3H4zM-8 53.6h3v3h-3z"/><path fill="#FFF" d="M1 53.6h3v3H1zM-14 53.6h6v3h-6z"/><path fill="#000" d="M-8 50.6h6v3h-6zM-2 53.6h3v3h-3z"/><path fill="#FFF" d="M-5 53.6h3v3h-3zM45 53.6h3v3h-3z"/><path fill="#000" d="M39 50.6h3v3h-3zM27 50.6h3v3h-3z"/><path fill="#FFF" d="M36 50.6h3v3h-3zM24 50.6h3v3h-3z"/><path fill="#000" d="M42 53.6h3v3h-3zM30 53.6h3v3h-3z"/><path fill="#FFF" d="M39 53.6h3v3h-3zM24 53.6h6v3h-6z"/><path fill="#000" d="M30 50.6h6v3h-6zM21 50.6h3v3h-3z"/><path fill="#FFF" d="M4 50.6h17v3H4z"/><path fill="#000" d="M36 53.6h3v3h-3z"/><path fill="#FFF" d="M33 53.6h3v3h-3z"/><path fill="#000" d="M7 53.6h17v3H7zM57 56.6h3v3h-3zM45 56.6h3v3h-3z"/><path fill="#FFF" d="M54 56.6h3v3h-3zM42 56.6h3v3h-3z"/><path fill="#000" d="M60 59.6h3v3h-3zM48 59.6h3v3h-3z"/><path fill="#FFF" d="M57 59.6h3v3h-3zM42 59.6h6v3h-6z"/><path fill="#000" d="M48 56.6h6v3h-6zM39 56.6h3v3h-3z"/><path fill="#FFF" d="M36 56.6h3v3h-3z"/><path fill="#000" d="M54 59.6h3v3h-3z"/><path fill="#FFF" d="M51 59.6h3v3h-3z"/><path fill="#000" d="M-5 56.6h3v3h-3zM-17 56.6h3v3h-3z"/><path fill="#FFF" d="M-8 56.6h3v3h-3z"/><path fill="#000" d="M-2 59.6h3v3h-3zM-14 59.6h3v3h-3z"/><path fill="#FFF" d="M-5 59.6h3v3h-3zM-20 59.6h6v3h-6z"/><path fill="#000" d="M-14 56.6h6v3h-6zM-8 59.6h3v3h-3z"/><path fill="#FFF" d="M-11 59.6h3v3h-3zM39 59.6h3v3h-3z"/><path fill="#000" d="M33 56.6h3v3h-3zM21 56.6h3v3h-3z"/><path fill="#FFF" d="M30 56.6h3v3h-3zM18 56.6h3v3h-3z"/><path fill="#000" d="M36 59.6h3v3h-3zM24 59.6h3v3h-3z"/><path fill="#FFF" d="M33 59.6h3v3h-3zM18 59.6h6v3h-6z"/><path fill="#000" d="M24 56.6h6v3h-6zM15 56.6h3v3h-3z"/><path fill="#FFF" d="M-2 56.6h17v3H-2z"/><path fill="#000" d="M30 59.6h3v3h-3z"/><path fill="#FFF" d="M27 59.6h3v3h-3z"/><path fill="#000" d="M7 59.6h17v3H7zM48 11.6h3v3h-3zm12 0h3v3h-3z"/><path fill="#FFF" d="M51 11.6h3v3h-3zm12 0h3v3h-3z"/><path fill="#000" d="M45 14.6h3v3h-3zm12 0h3v3h-3z"/><path fill="#FFF" d="M48 14.6h3v3h-3zm12 0h6v3h-6z"/><path fill="#000" d="M54 11.6h6v3h-6zm12 0h3v3h-3z"/><path fill="#FFF" d="M69 11.6h3v3h-3z"/><path fill="#000" d="M51 14.6h3v3h-3z"/><path fill="#FFF" d="M54 14.6h3v3h-3z"/><path fill="#000" d="M110 11.6h3v3h-3zm12 0h3v3h-3z"/><path fill="#FFF" d="M113 11.6h3v3h-3z"/><path fill="#000" d="M107 14.6h3v3h-3zm12 0h3v3h-3z"/><path fill="#FFF" d="M110 14.6h3v3h-3zm12 0h6v3h-6z"/><path fill="#000" d="M116 11.6h6v3h-6zm-3 3h3v3h-3z"/><path fill="#FFF" d="M116 14.6h3v3h-3zm-50 0h3v3h-3z"/><path fill="#000" d="M72 11.6h3v3h-3zm12 0h3v3h-3z"/><path fill="#FFF" d="M75 11.6h3v3h-3zm12 0h3v3h-3z"/><path fill="#000" d="M69 14.6h3v3h-3zm12 0h3v3h-3z"/><path fill="#FFF" d="M72 14.6h3v3h-3zm12 0h6v3h-6z"/><path fill="#000" d="M78 11.6h6v3h-6zm12 0h3v3h-3z"/><path fill="#FFF" d="M93 11.6h17v3H93z"/><path fill="#000" d="M75 14.6h3v3h-3z"/><path fill="#FFF" d="M78 14.6h3v3h-3z"/><path fill="#000" d="M90 14.6h17v3H90zm-36 3h3v3h-3zm12 0h3v3h-3z"/><path fill="#FFF" d="M57 17.6h3v3h-3zm12 0h3v3h-3z"/><path fill="#000" d="M51 20.6h3v3h-3zm12 0h3v3h-3z"/><path fill="#FFF" d="M54 20.6h3v3h-3zm12 0h6v3h-6z"/><path fill="#000" d="M60 17.6h6v3h-6zm12 0h3v3h-3z"/><path fill="#FFF" d="M75 17.6h3v3h-3z"/><path fill="#000" d="M57 20.6h3v3h-3z"/><path fill="#FFF" d="M60 20.6h3v3h-3z"/><path fill="#000" d="M116 17.6h3v3h-3zm12 0h3v3h-3z"/><path fill="#FFF" d="M119 17.6h3v3h-3z"/><path fill="#000" d="M113 20.6h3v3h-3zm12 0h3v3h-3z"/><path fill="#FFF" d="M116 20.6h3v3h-3zm12 0h6v3h-6z"/><path fill="#000" d="M122 17.6h6v3h-6zm-3 3h3v3h-3z"/><path fill="#FFF" d="M122 20.6h3v3h-3zm-50 0h3v3h-3z"/><path fill="#000" d="M78 17.6h3v3h-3zm12 0h3v3h-3z"/><path fill="#FFF" d="M81 17.6h3v3h-3zm12 0h3v3h-3z"/><path fill="#000" d="M75 20.6h3v3h-3zm12 0h3v3h-3z"/><path fill="#FFF" d="M78 20.6h3v3h-3zm12 0h6v3h-6z"/><path fill="#000" d="M84 17.6h6v3h-6zm12 0h3v3h-3z"/><path fill="#FFF" d="M99 17.6h17v3H99z"/><path fill="#000" d="M81 20.6h3v3h-3z"/><path fill="#FFF" d="M84 20.6h3v3h-3z"/><path fill="#000" d="M90 20.6h17v3H90zm-52 3h3v3h-3zm12 0h3v3h-3z"/><path fill="#FFF" d="M41 23.6h3v3h-3zm12 0h3v3h-3z"/><path fill="#000" d="M35 26.6h3v3h-3zm12 0h3v3h-3z"/><path fill="#FFF" d="M38 26.6h3v3h-3zm12 0h6v3h-6z"/><path fill="#000" d="M44 23.6h6v3h-6zm12 0h3v3h-3z"/><path fill="#FFF" d="M59 23.6h3v3h-3z"/><path fill="#000" d="M41 26.6h3v3h-3z"/><path fill="#FFF" d="M44 26.6h3v3h-3z"/><path fill="#000" d="M100 23.6h3v3h-3zm12 0h3v3h-3z"/><path fill="#FFF" d="M103 23.6h3v3h-3z"/><path fill="#000" d="M97 26.6h3v3h-3zm12 0h3v3h-3z"/><path fill="#FFF" d="M100 26.6h3v3h-3zm12 0h6v3h-6z"/><path fill="#000" d="M106 23.6h6v3h-6zm-3 3h3v3h-3z"/><path fill="#FFF" d="M106 26.6h3v3h-3zm-50 0h3v3h-3z"/><path fill="#000" d="M62 23.6h3v3h-3zm12 0h3v3h-3z"/><path fill="#FFF" d="M65 23.6h3v3h-3zm12 0h3v3h-3z"/><path fill="#000" d="M59 26.6h3v3h-3zm12 0h3v3h-3z"/><path fill="#FFF" d="M62 26.6h3v3h-3zm12 0h6v3h-6z"/><path fill="#000" d="M68 23.6h6v3h-6zm12 0h3v3h-3z"/><path fill="#FFF" d="M83 23.6h17v3H83z"/><path fill="#000" d="M65 26.6h3v3h-3z"/><path fill="#FFF" d="M68 26.6h3v3h-3z"/><path fill="#000" d="M80 26.6h17v3H80zm-36 3h3v3h-3zm12 0h3v3h-3z"/><path fill="#FFF" d="M47 29.6h3v3h-3zm12 0h3v3h-3z"/><path fill="#000" d="M41 32.6h3v3h-3zm12 0h3v3h-3z"/><path fill="#FFF" d="M44 32.6h3v3h-3zm12 0h6v3h-6z"/><path fill="#000" d="M50 29.6h6v3h-6zm12 0h3v3h-3z"/><path fill="#FFF" d="M65 29.6h3v3h-3z"/><path fill="#000" d="M47 32.6h3v3h-3z"/><path fill="#FFF" d="M50 32.6h3v3h-3z"/><path fill="#000" d="M106 29.6h3v3h-3zm12 0h3v3h-3z"/><path fill="#FFF" d="M109 29.6h3v3h-3z"/><path fill="#000" d="M103 32.6h3v3h-3zm12 0h3v3h-3z"/><path fill="#FFF" d="M106 32.6h3v3h-3zm12 0h6v3h-6z"/><path fill="#000" d="M112 29.6h6v3h-6zm-3 3h3v3h-3z"/><path fill="#FFF" d="M112 32.6h3v3h-3zm-50 0h3v3h-3z"/><path fill="#000" d="M68 29.6h3v3h-3zm12 0h3v3h-3z"/><path fill="#FFF" d="M71 29.6h3v3h-3zm12 0h3v3h-3z"/><path fill="#000" d="M65 32.6h3v3h-3zm12 0h3v3h-3z"/><path fill="#FFF" d="M68 32.6h3v3h-3zm12 0h6v3h-6z"/><path fill="#000" d="M74 29.6h6v3h-6zm12 0h3v3h-3z"/><path fill="#FFF" d="M89 29.6h17v3H89z"/><path fill="#000" d="M48 62.6h3v3h-3zm12 0h3v3h-3z"/><path fill="#FFF" d="M51 62.6h3v3h-3zm12 0h3v3h-3z"/><path fill="#000" d="M45 65.6h3v3h-3zm12 0h3v3h-3z"/><path fill="#FFF" d="M48 65.6h3v3h-3zm12 0h6v3h-6z"/><path fill="#000" d="M54 62.6h6v3h-6zm12 0h3v3h-3z"/><path fill="#FFF" d="M69 62.6h3v3h-3z"/><path fill="#000" d="M51 65.6h3v3h-3z"/><path fill="#FFF" d="M54 65.6h3v3h-3z"/><path fill="#000" d="M110 62.6h3v3h-3zm12 0h3v3h-3z"/><path fill="#FFF" d="M113 62.6h3v3h-3z"/><path fill="#000" d="M107 65.6h3v3h-3zm12 0h3v3h-3z"/><path fill="#FFF" d="M110 65.6h3v3h-3zm12 0h6v3h-6z"/><path fill="#000" d="M116 62.6h6v3h-6zm-3 3h3v3h-3z"/><path fill="#FFF" d="M116 65.6h3v3h-3zm-50 0h3v3h-3z"/><path fill="#000" d="M72 62.6h3v3h-3zm12 0h3v3h-3z"/><path fill="#FFF" d="M75 62.6h3v3h-3zm12 0h3v3h-3z"/><path fill="#000" d="M69 65.6h3v3h-3zm12 0h3v3h-3z"/><path fill="#FFF" d="M72 65.6h3v3h-3zm12 0h6v3h-6z"/><path fill="#000" d="M78 62.6h6v3h-6zm12 0h3v3h-3z"/><path fill="#FFF" d="M93 62.6h17v3H93z"/><path fill="#000" d="M75 65.6h3v3h-3z"/><path fill="#FFF" d="M78 65.6h3v3h-3z"/><path fill="#000" d="M90 65.6h17v3H90zm-36 3h3v3h-3zm12 0h3v3h-3z"/><path fill="#FFF" d="M57 68.6h3v3h-3zm12 0h3v3h-3z"/><path fill="#000" d="M51 71.6h3v3h-3zm12 0h3v3h-3z"/><path fill="#FFF" d="M54 71.6h3v3h-3zm12 0h6v3h-6z"/><path fill="#000" d="M60 68.6h6v3h-6zm12 0h3v3h-3z"/><path fill="#FFF" d="M75 68.6h3v3h-3z"/><path fill="#000" d="M57 71.6h3v3h-3z"/><path fill="#FFF" d="M60 71.6h3v3h-3z"/><path fill="#000" d="M116 68.6h3v3h-3zm12 0h3v3h-3z"/><path fill="#FFF" d="M119 68.6h3v3h-3z"/><path fill="#000" d="M113 71.6h3v3h-3zm12 0h3v3h-3z"/><path fill="#FFF" d="M116 71.6h3v3h-3zm12 0h6v3h-6z"/><path fill="#000" d="M122 68.6h6v3h-6zm-3 3h3v3h-3z"/><path fill="#FFF" d="M122 71.6h3v3h-3zm-50 0h3v3h-3z"/><path fill="#000" d="M78 68.6h3v3h-3zm12 0h3v3h-3z"/><path fill="#FFF" d="M81 68.6h3v3h-3zm12 0h3v3h-3z"/><path fill="#000" d="M75 71.6h3v3h-3zm12 0h3v3h-3z"/><path fill="#FFF" d="M78 71.6h3v3h-3zm12 0h6v3h-6z"/><path fill="#000" d="M84 68.6h6v3h-6zm12 0h3v3h-3z"/><path fill="#FFF" d="M99 68.6h17v3H99z"/><path fill="#000" d="M81 71.6h3v3h-3z"/><path fill="#FFF" d="M84 71.6h3v3h-3z"/><path fill="#000" d="M90 71.6h17v3H90zm-52 3h3v3h-3zm12 0h3v3h-3z"/><path fill="#FFF" d="M41 74.6h3v3h-3zm12 0h3v3h-3z"/><path fill="#000" d="M35 77.6h3v3h-3zm12 0h3v3h-3z"/><path fill="#FFF" d="M38 77.6h3v3h-3zm12 0h6v3h-6z"/><path fill="#000" d="M44 74.6h6v3h-6zm12 0h3v3h-3z"/><path fill="#FFF" d="M59 74.6h3v3h-3z"/><path fill="#000" d="M41 77.6h3v3h-3z"/><path fill="#FFF" d="M44 77.6h3v3h-3z"/><path fill="#000" d="M100 74.6h3v3h-3zm12 0h3v3h-3z"/><path fill="#FFF" d="M103 74.6h3v3h-3z"/><path fill="#000" d="M97 77.6h3v3h-3zm12 0h3v3h-3z"/><path fill="#FFF" d="M100 77.6h3v3h-3zm12 0h6v3h-6z"/><path fill="#000" d="M106 74.6h6v3h-6zm-3 3h3v3h-3z"/><path fill="#FFF" d="M106 77.6h3v3h-3zm-50 0h3v3h-3z"/><path fill="#000" d="M62 74.6h3v3h-3zm12 0h3v3h-3z"/><path fill="#FFF" d="M65 74.6h3v3h-3zm12 0h3v3h-3z"/><path fill="#000" d="M59 77.6h3v3h-3zm12 0h3v3h-3z"/><path fill="#FFF" d="M62 77.6h3v3h-3zm12 0h6v3h-6z"/><path fill="#000" d="M68 74.6h6v3h-6zm12 0h3v3h-3z"/><path fill="#FFF" d="M83 74.6h17v3H83z"/><path fill="#000" d="M65 77.6h3v3h-3z"/><path fill="#FFF" d="M68 77.6h3v3h-3z"/><path fill="#000" d="M80 77.6h17v3H80zm-36 3h3v3h-3zm12 0h3v3h-3z"/><path fill="#FFF" d="M47 80.6h3v3h-3zm12 0h3v3h-3z"/><path fill="#000" d="M50 80.6h6v3h-6zm12 0h3v3h-3z"/><path fill="#FFF" d="M65 80.6h3v3h-3z"/><path fill="#000" d="M106 80.6h3v3h-3zm12 0h3v3h-3z"/><path fill="#FFF" d="M109 80.6h3v3h-3z"/><path fill="#000" d="M112 80.6h6v3h-6zm-44 0h3v3h-3zm12 0h3v3h-3z"/><path fill="#FFF" d="M71 80.6h3v3h-3zm12 0h3v3h-3z"/><path fill="#000" d="M74 80.6h6v3h-6zm12 0h3v3h-3z"/><path fill="#FFF" d="M89 80.6h17v3H89z"/><path fill="#000" d="M71 32.6h3v3h-3z"/><path fill="#FFF" d="M74 32.6h3v3h-3z"/><path fill="#000" d="M80 32.6h17v3H80zm-29 3h3v3h-3zm12 0h3v3h-3z"/><path fill="#FFF" d="M54 35.6h3v3h-3zm12 0h6v3h-6z"/><path fill="#000" d="M57 35.6h3v3h-3z"/><path fill="#FFF" d="M60 35.6h3v3h-3z"/><path fill="#000" d="M113 35.6h3v3h-3zm12 0h3v3h-3z"/><path fill="#FFF" d="M116 35.6h3v3h-3zm12 0h6v3h-6z"/><path fill="#000" d="M119 35.6h3v3h-3z"/><path fill="#FFF" d="M122 35.6h3v3h-3zm-50 0h3v3h-3z"/><path fill="#000" d="M75 35.6h3v3h-3zm12 0h3v3h-3z"/><path fill="#FFF" d="M78 35.6h3v3h-3zm12 0h6v3h-6z"/><path fill="#000" d="M81 35.6h3v3h-3z"/><path fill="#FFF" d="M84 35.6h3v3h-3z"/><path fill="#000" d="M90 35.6h17v3H90zm-52 3h3v3h-3zm12 0h3v3h-3z"/><path fill="#FFF" d="M41 38.6h3v3h-3zm12 0h3v3h-3z"/><path fill="#000" d="M35 41.6h3v3h-3zm12 0h3v3h-3z"/><path fill="#FFF" d="M38 41.6h3v3h-3zm12 0h6v3h-6z"/><path fill="#000" d="M44 38.6h6v3h-6zm12 0h3v3h-3z"/><path fill="#FFF" d="M59 38.6h3v3h-3z"/><path fill="#000" d="M41 41.6h3v3h-3z"/><path fill="#FFF" d="M44 41.6h3v3h-3z"/><path fill="#000" d="M100 38.6h3v3h-3zm12 0h3v3h-3z"/><path fill="#FFF" d="M103 38.6h3v3h-3z"/><path fill="#000" d="M97 41.6h3v3h-3zm12 0h3v3h-3z"/><path fill="#FFF" d="M100 41.6h3v3h-3zm12 0h6v3h-6z"/><path fill="#000" d="M106 38.6h6v3h-6zm-3 3h3v3h-3z"/><path fill="#FFF" d="M106 41.6h3v3h-3zm-50 0h3v3h-3z"/><path fill="#000" d="M62 38.6h3v3h-3zm12 0h3v3h-3z"/><path fill="#FFF" d="M65 38.6h3v3h-3zm12 0h3v3h-3z"/><path fill="#000" d="M59 41.6h3v3h-3zm12 0h3v3h-3z"/><path fill="#FFF" d="M62 41.6h3v3h-3zm12 0h6v3h-6z"/><path fill="#000" d="M68 38.6h6v3h-6zm12 0h3v3h-3z"/><path fill="#FFF" d="M83 38.6h17v3H83z"/><path fill="#000" d="M65 41.6h3v3h-3z"/><path fill="#FFF" d="M68 41.6h3v3h-3z"/><path fill="#000" d="M80 41.6h17v3H80zm-36 3h3v3h-3zm12 0h3v3h-3z"/><path fill="#FFF" d="M47 44.6h3v3h-3zm12 0h3v3h-3z"/><path fill="#000" d="M41 47.6h3v3h-3zm12 0h3v3h-3z"/><path fill="#FFF" d="M44 47.6h3v3h-3zm12 0h6v3h-6z"/><path fill="#000" d="M50 44.6h6v3h-6zm12 0h3v3h-3z"/><path fill="#FFF" d="M65 44.6h3v3h-3z"/><path fill="#000" d="M47 47.6h3v3h-3z"/><path fill="#FFF" d="M50 47.6h3v3h-3z"/><path fill="#000" d="M106 44.6h3v3h-3zm12 0h3v3h-3z"/><path fill="#FFF" d="M109 44.6h3v3h-3z"/><path fill="#000" d="M103 47.6h3v3h-3zm12 0h3v3h-3z"/><path fill="#FFF" d="M106 47.6h3v3h-3zm12 0h6v3h-6z"/><path fill="#000" d="M112 44.6h6v3h-6zm-3 3h3v3h-3z"/><path fill="#FFF" d="M112 47.6h3v3h-3zm-50 0h3v3h-3z"/><path fill="#000" d="M68 44.6h3v3h-3zm12 0h3v3h-3z"/><path fill="#FFF" d="M71 44.6h3v3h-3zm12 0h3v3h-3z"/><path fill="#000" d="M65 47.6h3v3h-3zm12 0h3v3h-3z"/><path fill="#FFF" d="M68 47.6h3v3h-3zm12 0h6v3h-6z"/><path fill="#000" d="M74 44.6h6v3h-6zm12 0h3v3h-3z"/><path fill="#FFF" d="M89 44.6h17v3H89z"/><path fill="#000" d="M71 47.6h3v3h-3z"/><path fill="#FFF" d="M74 47.6h3v3h-3z"/><path fill="#000" d="M80 47.6h17v3H80z"/><g><path fill="#000" d="M118-.4h3v3h-3zM106-.4h3v3h-3z"/><path fill="#FFF" d="M115-.4h3v3h-3zM103-.4h3v3h-3z"/><path fill="#000" d="M121 2.6h3v3h-3zM109 2.6h3v3h-3z"/><path fill="#FFF" d="M118 2.6h3v3h-3zM103 2.6h6v3h-6z"/><path fill="#000" d="M109-.4h6v3h-6zM100-.4h3v3h-3z"/><path fill="#FFF" d="M97-.4h3v3h-3z"/><path fill="#000" d="M115 2.6h3v3h-3z"/><path fill="#FFF" d="M112 2.6h3v3h-3z"/><path fill="#000" d="M56-.4h3v3h-3zM44-.4h3v3h-3z"/><path fill="#FFF" d="M53-.4h3v3h-3z"/><path fill="#000" d="M59 2.6h3v3h-3zM47 2.6h3v3h-3z"/><path fill="#FFF" d="M56 2.6h3v3h-3zM41 2.6h6v3h-6z"/><path fill="#000" d="M47-.4h6v3h-6zM53 2.6h3v3h-3z"/><path fill="#FFF" d="M50 2.6h3v3h-3zM100 2.6h3v3h-3z"/><path fill="#000" d="M94-.4h3v3h-3zM82-.4h3v3h-3z"/><path fill="#FFF" d="M91-.4h3v3h-3zM79-.4h3v3h-3z"/><path fill="#000" d="M97 2.6h3v3h-3zM85 2.6h3v3h-3z"/><path fill="#FFF" d="M94 2.6h3v3h-3zM79 2.6h6v3h-6z"/><path fill="#000" d="M85-.4h6v3h-6zM76-.4h3v3h-3z"/><path fill="#FFF" d="M59-.4h17v3H59z"/><path fill="#000" d="M91 2.6h3v3h-3z"/><path fill="#FFF" d="M88 2.6h3v3h-3z"/><path fill="#000" d="M62 2.6h17v3H62zM112 5.6h3v3h-3zM100 5.6h3v3h-3z"/><path fill="#FFF" d="M109 5.6h3v3h-3zM97 5.6h3v3h-3z"/><path fill="#000" d="M115 8.6h3v3h-3zM103 8.6h3v3h-3z"/><path fill="#FFF" d="M112 8.6h3v3h-3zM97 8.6h6v3h-6z"/><path fill="#000" d="M103 5.6h6v3h-6zM94 5.6h3v3h-3z"/><path fill="#FFF" d="M91 5.6h3v3h-3z"/><path fill="#000" d="M109 8.6h3v3h-3z"/><path fill="#FFF" d="M106 8.6h3v3h-3z"/><path fill="#000" d="M50 5.6h3v3h-3zM38 5.6h3v3h-3z"/><path fill="#FFF" d="M47 5.6h3v3h-3z"/><path fill="#000" d="M53 8.6h3v3h-3zM41 8.6h3v3h-3z"/><path fill="#FFF" d="M50 8.6h3v3h-3zM35 8.6h6v3h-6z"/><path fill="#000" d="M41 5.6h6v3h-6zM47 8.6h3v3h-3z"/><path fill="#FFF" d="M44 8.6h3v3h-3zM94 8.6h3v3h-3z"/><path fill="#000" d="M88 5.6h3v3h-3zM76 5.6h3v3h-3z"/><path fill="#FFF" d="M85 5.6h3v3h-3zM73 5.6h3v3h-3z"/><path fill="#000" d="M91 8.6h3v3h-3zM79 8.6h3v3h-3z"/><path fill="#FFF" d="M88 8.6h3v3h-3zM73 8.6h6v3h-6z"/><path fill="#000" d="M79 5.6h6v3h-6zM70 5.6h3v3h-3z"/><path fill="#FFF" d="M53 5.6h17v3H53z"/><path fill="#000" d="M85 8.6h3v3h-3z"/><path fill="#FFF" d="M82 8.6h3v3h-3z"/><path fill="#000" d="M62 8.6h17v3H62z"/></g><g><path fill="#000" d="M128 83.6h3v3h-3zM116 83.6h3v3h-3z"/><path fill="#FFF" d="M125 83.6h3v3h-3zM113 83.6h3v3h-3z"/><path fill="#000" d="M131 86.6h3v3h-3zM119 86.6h3v3h-3z"/><path fill="#FFF" d="M128 86.6h3v3h-3zM113 86.6h6v3h-6z"/><path fill="#000" d="M119 83.6h6v3h-6zM110 83.6h3v3h-3z"/><path fill="#FFF" d="M107 83.6h3v3h-3z"/><path fill="#000" d="M125 86.6h3v3h-3z"/><path fill="#FFF" d="M122 86.6h3v3h-3z"/><path fill="#000" d="M66 83.6h3v3h-3zM54 83.6h3v3h-3z"/><path fill="#FFF" d="M63 83.6h3v3h-3z"/><path fill="#000" d="M69 86.6h3v3h-3zM57 86.6h3v3h-3z"/><path fill="#FFF" d="M66 86.6h3v3h-3zM51 86.6h6v3h-6z"/><path fill="#000" d="M57 83.6h6v3h-6zM63 86.6h3v3h-3z"/><path fill="#FFF" d="M60 86.6h3v3h-3zM110 86.6h3v3h-3z"/><path fill="#000" d="M104 83.6h3v3h-3zM92 83.6h3v3h-3z"/><path fill="#FFF" d="M101 83.6h3v3h-3zM89 83.6h3v3h-3z"/><path fill="#000" d="M107 86.6h3v3h-3zM95 86.6h3v3h-3z"/><path fill="#FFF" d="M104 86.6h3v3h-3zM89 86.6h6v3h-6z"/><path fill="#000" d="M95 83.6h6v3h-6zM86 83.6h3v3h-3z"/><path fill="#FFF" d="M69 83.6h17v3H69z"/><path fill="#000" d="M101 86.6h3v3h-3z"/><path fill="#FFF" d="M98 86.6h3v3h-3z"/><path fill="#000" d="M72 86.6h17v3H72zM122 89.6h3v3h-3zM110 89.6h3v3h-3z"/><path fill="#FFF" d="M119 89.6h3v3h-3zM107 89.6h3v3h-3z"/><path fill="#000" d="M125 92.6h3v3h-3zM113 92.6h3v3h-3z"/><path fill="#FFF" d="M122 92.6h3v3h-3zM107 92.6h6v3h-6z"/><path fill="#000" d="M113 89.6h6v3h-6zM104 89.6h3v3h-3z"/><path fill="#FFF" d="M101 89.6h3v3h-3z"/><path fill="#000" d="M119 92.6h3v3h-3z"/><path fill="#FFF" d="M116 92.6h3v3h-3z"/><path fill="#000" d="M60 89.6h3v3h-3zM48 89.6h3v3h-3z"/><path fill="#FFF" d="M57 89.6h3v3h-3z"/><path fill="#000" d="M63 92.6h3v3h-3zM51 92.6h3v3h-3z"/><path fill="#FFF" d="M60 92.6h3v3h-3zM45 92.6h6v3h-6z"/><path fill="#000" d="M51 89.6h6v3h-6zM57 92.6h3v3h-3z"/><path fill="#FFF" d="M54 92.6h3v3h-3zM104 92.6h3v3h-3z"/><path fill="#000" d="M98 89.6h3v3h-3zM86 89.6h3v3h-3z"/><path fill="#FFF" d="M95 89.6h3v3h-3zM83 89.6h3v3h-3z"/><path fill="#000" d="M101 92.6h3v3h-3zM89 92.6h3v3h-3z"/><path fill="#FFF" d="M98 92.6h3v3h-3zM83 92.6h6v3h-6z"/><path fill="#000" d="M89 89.6h6v3h-6zM80 89.6h3v3h-3z"/><path fill="#FFF" d="M63 89.6h17v3H63z"/><path fill="#000" d="M95 92.6h3v3h-3z"/><path fill="#FFF" d="M92 92.6h3v3h-3z"/><path fill="#000" d="M72 92.6h17v3H72z"/></g><g><path fill="#000" d="M118 50.6h3v3h-3zM106 50.6h3v3h-3z"/><path fill="#FFF" d="M115 50.6h3v3h-3zM103 50.6h3v3h-3z"/><path fill="#000" d="M121 53.6h3v3h-3zM109 53.6h3v3h-3z"/><path fill="#FFF" d="M118 53.6h3v3h-3zM103 53.6h6v3h-6z"/><path fill="#000" d="M109 50.6h6v3h-6zM100 50.6h3v3h-3z"/><path fill="#FFF" d="M97 50.6h3v3h-3z"/><path fill="#000" d="M115 53.6h3v3h-3z"/><path fill="#FFF" d="M112 53.6h3v3h-3z"/><path fill="#000" d="M56 50.6h3v3h-3zM44 50.6h3v3h-3z"/><path fill="#FFF" d="M53 50.6h3v3h-3z"/><path fill="#000" d="M59 53.6h3v3h-3zM47 53.6h3v3h-3z"/><path fill="#FFF" d="M56 53.6h3v3h-3zM41 53.6h6v3h-6z"/><path fill="#000" d="M47 50.6h6v3h-6zM53 53.6h3v3h-3z"/><path fill="#FFF" d="M50 53.6h3v3h-3zM100 53.6h3v3h-3z"/><path fill="#000" d="M94 50.6h3v3h-3zM82 50.6h3v3h-3z"/><path fill="#FFF" d="M91 50.6h3v3h-3zM79 50.6h3v3h-3z"/><path fill="#000" d="M97 53.6h3v3h-3zM85 53.6h3v3h-3z"/><path fill="#FFF" d="M94 53.6h3v3h-3zM79 53.6h6v3h-6z"/><path fill="#000" d="M85 50.6h6v3h-6zM76 50.6h3v3h-3z"/><path fill="#FFF" d="M59 50.6h17v3H59z"/><path fill="#000" d="M91 53.6h3v3h-3z"/><path fill="#FFF" d="M88 53.6h3v3h-3z"/><path fill="#000" d="M62 53.6h17v3H62zM112 56.6h3v3h-3zM100 56.6h3v3h-3z"/><path fill="#FFF" d="M109 56.6h3v3h-3zM97 56.6h3v3h-3z"/><path fill="#000" d="M115 59.6h3v3h-3zM103 59.6h3v3h-3z"/><path fill="#FFF" d="M112 59.6h3v3h-3zM97 59.6h6v3h-6z"/><path fill="#000" d="M103 56.6h6v3h-6zM94 56.6h3v3h-3z"/><path fill="#FFF" d="M91 56.6h3v3h-3z"/><path fill="#000" d="M109 59.6h3v3h-3z"/><path fill="#FFF" d="M106 59.6h3v3h-3z"/><path fill="#000" d="M50 56.6h3v3h-3zM38 56.6h3v3h-3z"/><path fill="#FFF" d="M47 56.6h3v3h-3z"/><path fill="#000" d="M53 59.6h3v3h-3zM41 59.6h3v3h-3z"/><path fill="#FFF" d="M50 59.6h3v3h-3zM35 59.6h6v3h-6z"/><path fill="#000" d="M41 56.6h6v3h-6zM47 59.6h3v3h-3z"/><path fill="#FFF" d="M44 59.6h3v3h-3zM94 59.6h3v3h-3z"/><path fill="#000" d="M88 56.6h3v3h-3zM76 56.6h3v3h-3z"/><path fill="#FFF" d="M85 56.6h3v3h-3zM73 56.6h3v3h-3z"/><path fill="#000" d="M91 59.6h3v3h-3zM79 59.6h3v3h-3z"/><path fill="#FFF" d="M88 59.6h3v3h-3zM73 59.6h6v3h-6z"/><path fill="#000" d="M79 56.6h6v3h-6zM70 56.6h3v3h-3z"/><path fill="#FFF" d="M53 56.6h17v3H53z"/><path fill="#000" d="M85 59.6h3v3h-3z"/><path fill="#FFF" d="M82 59.6h3v3h-3z"/><path fill="#000" d="M62 59.6h17v3H62z"/></g></g><path fill="#FFF" d="M-2.6 20a3072.8 3072.8 0 01102.4 0c1.4 0 2.7 1 3 2.5a15.8 15.8 0 010 7.3 3.1 3.1 0 01-3 2.4 2937.9 2937.9 0 01-102.4 0c-1 0-1.8-.5-2.4-1.2a7.7 7.7 0 01-2-4.8c0-1.7.7-3.3 2-5 .6-.7 1.5-1.1 2.4-1.1zm0 40.3a3072.8 3072.8 0 01102.4 0c1.4 0 2.7 1 3 2.4a15.8 15.8 0 010 7.3 3.1 3.1 0 01-3 2.4 2937.9 2937.9 0 01-102.4 0c-1 0-1.8-.4-2.4-1.2a7.7 7.7 0 01-2-4.8c0-1.7.7-3.3 2-5 .6-.7 1.5-1.1 2.4-1.1z" mask="url(#f)" opacity=".5"/></g><path fill="#171819" d="M146.4 55.1h20v83.5h-20z"/><circle cx="159" cy="66.1" r="4.7" fill="#C7C8CB"/><circle cx="150.6" cy="63.5" r="2.1" fill="#C7C8CB"/><circle cx="150.6" cy="69.8" r="2.1" fill="#C7C8CB"/><circle cx="150.6" cy="76.1" r="2.1" fill="#C7C8CB"/><circle cx="159" cy="80.3" r="4.7" fill="#C7C8CB"/><path stroke="#171819" stroke-linecap="round" stroke-width="1.1" d="M156.7 78l4.2 4.2"/><path fill="#4B0A00" d="M169 55.1h-2.7v83.5h2.7z"/><rect width="15.7" height="2.6" x="148.5" y="89.8" fill="#C7C8CB" rx="1.1"/><rect width="15.7" height="2.6" x="148.5" y="95" fill="#C7C8CB" rx="1.1"/><rect width="15.7" height="2.6" x="148.5" y="100.3" fill="#C7C8CB" rx="1.1"/><rect width="15.7" height="2.6" x="148.5" y="105.5" fill="#C7C8CB" rx="1.1"/><rect width="15.7" height="2.6" x="148.5" y="110.8" fill="#C7C8CB" rx="1.1"/><rect width="15.7" height="2.6" x="148.5" y="116" fill="#C7C8CB" rx="1.1"/><rect width="15.7" height="2.6" x="148.5" y="121.3" fill="#C7C8CB" rx="1.1"/><rect width="15.7" height="2.6" x="148.5" y="126.5" fill="#C7C8CB" rx="1.1"/><rect width="15.7" height="2.6" x="148.5" y="131.8" fill="#C7C8CB" rx="1.1"/><path fill="#B36A16" d="M.6 148.8h232v83H.6z"/><path stroke="#171819" stroke-linecap="round" stroke-width="1.1" d="M156.6 64l4.2 4.2"/><path stroke="#979797" stroke-width="1.1" d="M138 0L54 49.9"/></g></g></g></g></svg>