<svg width="60" height="40" viewBox="0 0 56 25" fill="none" xmlns="http://www.w3.org/2000/svg">
    <path id="Intersect" fill-rule="evenodd" clip-rule="evenodd" d="M45.7445 18.8583C45.787 18.8411 45.8323 18.8326 45.8782 18.8334H53.8195C53.8655 18.8326 53.9107 18.8411 53.9533 18.8583C53.9959 18.8755 54.035 18.9011 54.0676 18.9335C54.1001 18.966 54.1254 19.0047 54.1427 19.0473C54.1601 19.0899 54.1688 19.1354 54.1681 19.1813V22.1874C54.1688 22.2333 54.1601 22.2791 54.1427 22.3217C54.1254 22.3642 54.1001 22.403 54.0676 22.4354C54.035 22.4679 53.9959 22.4934 53.9533 22.5106C53.9107 22.5278 53.8655 22.5361 53.8195 22.5353H45.8782C45.8323 22.5361 45.787 22.5278 45.7445 22.5106C45.7019 22.4934 45.6627 22.4677 45.6302 22.4352C45.5977 22.4027 45.5722 22.364 45.555 22.3214C45.5378 22.2788 45.5298 22.2333 45.5306 22.1874V19.1813C45.5298 19.1354 45.5378 19.0899 45.555 19.0473C45.5722 19.0047 45.5977 18.966 45.6302 18.9335C45.6627 18.901 45.7019 18.8755 45.7445 18.8583ZM12.3837 18.8586C12.4261 18.8413 12.4707 18.8327 12.5165 18.8334H43.3353C43.3811 18.8329 43.4267 18.8415 43.4691 18.8588C43.5115 18.8761 43.5501 18.9018 43.5824 18.9343C43.6146 18.9667 43.6395 19.0053 43.6566 19.0478C43.6737 19.0902 43.6818 19.1356 43.681 19.1813V22.1874C43.682 22.2332 43.6736 22.2786 43.6566 22.3212C43.6396 22.3637 43.6147 22.4025 43.5824 22.4349C43.5501 22.4674 43.5115 22.4929 43.4691 22.5101C43.4267 22.5274 43.3811 22.536 43.3353 22.5353H12.5165C12.4707 22.5358 12.426 22.5272 12.3837 22.5099C12.3413 22.4926 12.3027 22.4669 12.2704 22.4344C12.2381 22.402 12.2123 22.3634 12.1952 22.3209C12.1781 22.2785 12.17 22.2331 12.1708 22.1874V19.1813C12.1699 19.1355 12.1782 19.0901 12.1952 19.0475C12.2122 19.005 12.2381 18.9665 12.2704 18.934C12.3027 18.9015 12.3413 18.8758 12.3837 18.8586ZM1.97077 18.8586C2.01319 18.8413 2.05779 18.8327 2.10358 18.8334H10.0478C10.0937 18.8326 10.14 18.8411 10.1826 18.8583C10.2251 18.8755 10.2634 18.901 10.2958 18.9335C10.3283 18.966 10.3538 19.0047 10.371 19.0473C10.3882 19.0899 10.3972 19.1354 10.3964 19.1813V22.1874C10.3972 22.2333 10.3882 22.2788 10.371 22.3214C10.3538 22.364 10.3283 22.4027 10.2958 22.4352C10.2634 22.4677 10.2251 22.4934 10.1826 22.5106C10.14 22.5278 10.0937 22.5361 10.0478 22.5353H2.10358C2.05783 22.5358 2.01313 22.5272 1.97077 22.5099C1.92842 22.4926 1.88976 22.4669 1.85749 22.4344C1.82523 22.402 1.79938 22.3634 1.7823 22.3209C1.76522 22.2785 1.75708 22.2331 1.75789 22.1874V19.1813C1.75694 19.1355 1.76527 19.0901 1.7823 19.0475C1.79933 19.005 1.8252 18.9665 1.85749 18.934C1.88979 18.9015 1.92836 18.8758 1.97077 18.8586ZM45.7445 13.4038C45.787 13.3868 45.8325 13.3785 45.8782 13.3794H53.8937C53.9394 13.3786 53.9852 13.387 54.0275 13.4041C54.0699 13.4212 54.1085 13.4467 54.1408 13.479C54.1731 13.5113 54.1989 13.5497 54.216 13.5921C54.2331 13.6344 54.2412 13.6799 54.2404 13.7256V16.7343C54.2411 16.7799 54.2322 16.8252 54.215 16.8674C54.1979 16.9096 54.1721 16.948 54.1398 16.9802C54.1075 17.0124 54.0698 17.0379 54.0275 17.0549C53.9852 17.0719 53.9393 17.0804 53.8937 17.0795H45.8782C45.8325 17.0805 45.7869 17.0721 45.7445 17.0551C45.702 17.0382 45.6636 17.0129 45.6312 16.9807C45.5987 16.9485 45.5733 16.9102 45.556 16.8679C45.5386 16.8256 45.53 16.7801 45.5306 16.7343V13.7256C45.5299 13.6798 45.5377 13.6342 45.555 13.5918C45.5723 13.5494 45.5987 13.5108 45.6312 13.4785C45.6637 13.4462 45.7019 13.4209 45.7445 13.4038ZM40.1977 13.4038C40.2402 13.3868 40.2857 13.3785 40.3315 13.3794H43.3402C43.3859 13.3786 43.4316 13.387 43.474 13.4041C43.5163 13.4212 43.555 13.4467 43.5873 13.479C43.6196 13.5113 43.6444 13.5497 43.6615 13.5921C43.6786 13.6344 43.6867 13.6799 43.6859 13.7256V16.7343C43.6866 16.7799 43.6786 16.8252 43.6615 16.8674C43.6443 16.9096 43.6186 16.948 43.5863 16.9802C43.554 17.0124 43.5163 17.0379 43.474 17.0549C43.4317 17.0719 43.3858 17.0804 43.3402 17.0795H40.3315C40.2858 17.0805 40.2401 17.0721 40.1977 17.0551C40.1552 17.0382 40.1169 17.0129 40.0844 16.9807C40.0519 16.9485 40.0265 16.9102 40.0092 16.8679C39.9919 16.8256 39.9833 16.7801 39.9838 16.7343V13.7256C39.9831 13.6798 39.991 13.6342 40.0082 13.5918C40.0255 13.5494 40.0519 13.5108 40.0844 13.4785C40.1169 13.4462 40.1552 13.4209 40.1977 13.4038ZM34.6489 13.4038C34.6915 13.3868 34.7369 13.3785 34.7827 13.3794H37.7885C37.8343 13.3785 37.8798 13.3868 37.9223 13.4038C37.9648 13.4209 38.0031 13.4462 38.0356 13.4785C38.0681 13.5108 38.0945 13.5494 38.1118 13.5918C38.129 13.6342 38.1369 13.6798 38.1362 13.7256V16.7343C38.1367 16.7801 38.1281 16.8256 38.1108 16.8679C38.0935 16.9102 38.0681 16.9485 38.0356 16.9807C38.0031 17.0129 37.9648 17.0382 37.9223 17.0551C37.8799 17.0721 37.8342 17.0805 37.7885 17.0795H34.7827C34.7369 17.0806 34.6915 17.0723 34.6489 17.0554C34.6064 17.0385 34.5673 17.0134 34.5347 16.9812C34.5021 16.949 34.4769 16.9105 34.4595 16.8681C34.4421 16.8258 34.4326 16.7801 34.4331 16.7343V13.7256C34.4326 13.6798 34.4421 13.6342 34.4595 13.5918C34.4769 13.5494 34.5021 13.5108 34.5347 13.4785C34.5672 13.4463 34.6064 13.4208 34.6489 13.4038ZM29.0992 13.4043C29.1415 13.3872 29.1874 13.3786 29.233 13.3794H32.2418C32.2874 13.3786 32.3322 13.387 32.3746 13.4041C32.4169 13.4212 32.4556 13.4467 32.4878 13.479C32.5201 13.5113 32.5459 13.5497 32.563 13.5921C32.5801 13.6344 32.5883 13.6799 32.5874 13.7256V16.7343C32.5881 16.7799 32.5802 16.8252 32.563 16.8674C32.5459 16.9096 32.5201 16.948 32.4878 16.9802C32.4556 17.0124 32.4168 17.0379 32.3746 17.0549C32.3323 17.0719 32.2873 17.0804 32.2418 17.0795H29.233C29.1875 17.0802 29.1424 17.0717 29.1002 17.0546C29.058 17.0375 29.0191 17.0121 28.9869 16.9799C28.9548 16.9478 28.9298 16.9093 28.9127 16.8672C28.8956 16.825 28.8866 16.7798 28.8873 16.7343V13.7256C28.8864 13.68 28.8947 13.6346 28.9117 13.5923C28.9287 13.55 28.9547 13.5113 28.9869 13.479C29.0191 13.4467 29.0569 13.4214 29.0992 13.4043ZM23.5505 13.4041C23.5928 13.387 23.6376 13.3786 23.6833 13.3794H26.693C26.7386 13.3787 26.7836 13.3874 26.8258 13.4046C26.8681 13.4217 26.9059 13.4472 26.9381 13.4795C26.9703 13.5118 26.9963 13.55 27.0133 13.5923C27.0304 13.6346 27.0385 13.68 27.0377 13.7256V16.7343C27.0385 16.7799 27.0304 16.8252 27.0133 16.8674C26.9963 16.9096 26.9703 16.948 26.9381 16.9802C26.9059 17.0124 26.8681 17.0378 26.8258 17.0549C26.7836 17.0719 26.7385 17.0804 26.693 17.0795H23.6833C23.6377 17.0804 23.5928 17.0719 23.5505 17.0549C23.5082 17.0379 23.4695 17.0124 23.4372 16.9802C23.4049 16.948 23.3802 16.9096 23.363 16.8674C23.3458 16.8252 23.3369 16.7799 23.3376 16.7343V13.7256C23.3368 13.6799 23.3449 13.6344 23.362 13.5921C23.3791 13.5497 23.4049 13.5113 23.4372 13.479C23.4695 13.4467 23.5081 13.4212 23.5505 13.4041ZM18.0008 13.4041C18.0431 13.387 18.0879 13.3786 18.1336 13.3794H21.1423C21.188 13.3786 21.2338 13.387 21.2761 13.4041C21.3185 13.4212 21.3571 13.4467 21.3894 13.479C21.4217 13.5113 21.4465 13.5497 21.4636 13.5921C21.4807 13.6344 21.4898 13.6799 21.489 13.7256V16.7343C21.4897 16.7799 21.4808 16.8252 21.4636 16.8674C21.4465 16.9096 21.4207 16.948 21.3884 16.9802C21.3561 17.0124 21.3184 17.0379 21.2761 17.0549C21.2338 17.0719 21.1879 17.0804 21.1423 17.0795H18.1336C18.088 17.0804 18.0431 17.0719 18.0008 17.0549C17.9585 17.0379 17.9198 17.0124 17.8875 16.9802C17.8552 16.948 17.8295 16.9096 17.8123 16.8674C17.7951 16.8252 17.7872 16.7799 17.7879 16.7343V13.7256C17.7871 13.6799 17.7952 13.6344 17.8123 13.5921C17.8294 13.5497 17.8552 13.5113 17.8875 13.479C17.9198 13.4467 17.9584 13.4212 18.0008 13.4041ZM12.4511 13.4041C12.4934 13.387 12.5392 13.3786 12.5849 13.3794H15.5926C15.6383 13.3786 15.6841 13.387 15.7264 13.4041C15.7687 13.4212 15.8074 13.4467 15.8397 13.479C15.872 13.5113 15.8968 13.5497 15.9139 13.5921C15.931 13.6344 15.9401 13.6799 15.9393 13.7256V16.7343C15.94 16.7799 15.9311 16.8252 15.9139 16.8674C15.8967 16.9096 15.871 16.948 15.8387 16.9802C15.8064 17.0124 15.7687 17.0379 15.7264 17.0549C15.6841 17.0719 15.6382 17.0804 15.5926 17.0795H12.5849C12.5393 17.0804 12.4943 17.0719 12.452 17.0549C12.4098 17.0379 12.371 17.0124 12.3388 16.9802C12.3065 16.948 12.2807 16.9096 12.2636 16.8674C12.2464 16.8252 12.2385 16.7799 12.2392 16.7343V13.7256C12.2383 13.6799 12.2465 13.6344 12.2636 13.5921C12.2807 13.5497 12.3065 13.5113 12.3388 13.479C12.3711 13.4467 12.4087 13.4212 12.4511 13.4041ZM1.9698 13.4041C2.01214 13.387 2.05695 13.3786 2.10261 13.3794H10.0468C10.0926 13.3785 10.1381 13.3868 10.1806 13.4038C10.2231 13.4209 10.2624 13.4462 10.2949 13.4785C10.3273 13.5108 10.3528 13.5494 10.37 13.5918C10.3873 13.6342 10.3951 13.6798 10.3945 13.7256V16.7343C10.395 16.7801 10.3864 16.8256 10.3691 16.8679C10.3517 16.9102 10.3263 16.9485 10.2939 16.9807C10.2614 17.0129 10.223 17.0382 10.1806 17.0551C10.1381 17.0721 10.0925 17.0805 10.0468 17.0795H2.10261C2.05703 17.0804 2.01207 17.0719 1.9698 17.0549C1.92752 17.0379 1.8888 17.0124 1.85652 16.9802C1.82424 16.948 1.79946 16.9096 1.7823 16.8674C1.76514 16.8252 1.75623 16.7799 1.75691 16.7343V13.7256C1.7561 13.6799 1.76422 13.6344 1.78132 13.5921C1.79842 13.5497 1.82423 13.5113 1.85652 13.479C1.88881 13.4467 1.92745 13.4212 1.9698 13.4041ZM48.8264 7.94884C48.8689 7.93157 48.9144 7.92302 48.9602 7.9237H53.8928C53.9387 7.92289 53.9849 7.93117 54.0275 7.94836C54.0702 7.96554 54.1092 7.99109 54.1418 8.02355C54.1743 8.05601 54.1997 8.09472 54.217 8.13732C54.2343 8.17991 54.243 8.22562 54.2424 8.27159V11.2776C54.243 11.3236 54.2343 11.3691 54.217 11.4117C54.1997 11.4543 54.1743 11.493 54.1418 11.5254C54.1092 11.5579 54.0702 11.5834 54.0275 11.6006C53.9849 11.6178 53.9387 11.6263 53.8928 11.6255H48.9602C48.9145 11.6261 48.8688 11.6175 48.8264 11.6002C48.7841 11.5828 48.7464 11.5572 48.7141 11.5247C48.6819 11.4923 48.656 11.4536 48.6389 11.4112C48.6219 11.3687 48.6137 11.3234 48.6145 11.2776V8.27159C48.6136 8.2258 48.6219 8.18032 48.6389 8.1378C48.656 8.09529 48.6809 8.05652 48.7132 8.02404C48.7454 7.99156 48.784 7.96612 48.8264 7.94884ZM43.2748 7.94884C43.3172 7.93157 43.3628 7.92302 43.4086 7.9237H46.4173C46.463 7.92329 46.5079 7.93195 46.5501 7.94933C46.5923 7.96671 46.6312 7.99233 46.6634 8.02477C46.6955 8.05721 46.7206 8.09591 46.7376 8.13829C46.7546 8.18068 46.7628 8.22592 46.762 8.27159V11.2776C46.7631 11.3234 46.7555 11.3687 46.7386 11.4112C46.7217 11.4537 46.6956 11.4925 46.6634 11.525C46.6312 11.5574 46.5934 11.5831 46.5511 11.6004C46.5087 11.6177 46.463 11.6262 46.4173 11.6255H43.4086C43.3628 11.6261 43.3171 11.6175 43.2748 11.6002C43.2324 11.5828 43.1938 11.5572 43.1615 11.5247C43.1292 11.4923 43.1044 11.4536 43.0873 11.4112C43.0702 11.3687 43.0621 11.3234 43.0629 11.2776V8.27159C43.0619 8.2258 43.0693 8.18032 43.0863 8.1378C43.1033 8.09529 43.1292 8.05652 43.1615 8.02404C43.1938 7.99156 43.2324 7.96612 43.2748 7.94884ZM37.7309 7.94884C37.7733 7.93157 37.8189 7.92302 37.8647 7.9237H40.8734C40.9191 7.92329 40.964 7.93195 41.0063 7.94933C41.0485 7.96671 41.0874 7.99233 41.1195 8.02477C41.1517 8.05721 41.1767 8.09591 41.1937 8.13829C41.2108 8.18068 41.219 8.22592 41.2182 8.27159V11.2776C41.2192 11.3234 41.2116 11.3687 41.1947 11.4112C41.1778 11.4537 41.1517 11.4925 41.1195 11.525C41.0873 11.5574 41.0496 11.5831 41.0072 11.6004C40.9649 11.6177 40.9192 11.6262 40.8734 11.6255H37.8647C37.8189 11.6261 37.7733 11.6175 37.7309 11.6002C37.6886 11.5828 37.6499 11.5572 37.6176 11.5247C37.5854 11.4923 37.5605 11.4536 37.5434 11.4112C37.5263 11.3687 37.5172 11.3234 37.518 11.2776V8.27159C37.5171 8.2258 37.5254 8.18032 37.5424 8.1378C37.5595 8.09529 37.5853 8.05652 37.6176 8.02404C37.6499 7.99156 37.6885 7.96612 37.7309 7.94884ZM32.1802 7.94836C32.2228 7.93116 32.2691 7.92288 32.315 7.9237H35.3237C35.3695 7.92315 35.4142 7.93177 35.4565 7.94909C35.4989 7.96641 35.5376 7.99208 35.5698 8.02453C35.6021 8.05698 35.6279 8.0956 35.645 8.13805C35.6621 8.1805 35.6702 8.22584 35.6694 8.27159V11.2776C35.6704 11.3234 35.662 11.3689 35.645 11.4114C35.628 11.4539 35.6031 11.4925 35.5708 11.525C35.5385 11.5574 35.4999 11.5831 35.4575 11.6004C35.4151 11.6177 35.3695 11.6262 35.3237 11.6255H32.315C32.2691 11.6262 32.2228 11.6176 32.1802 11.6004C32.1377 11.5831 32.0994 11.5576 32.0669 11.5252C32.0345 11.4928 32.009 11.454 31.9918 11.4114C31.9745 11.3689 31.9657 11.3235 31.9664 11.2776V8.27159C31.9656 8.22567 31.9746 8.18015 31.9918 8.13756C32.009 8.09497 32.0345 8.05627 32.0669 8.02379C32.0994 7.99132 32.1376 7.96556 32.1802 7.94836ZM26.6315 7.94884C26.6739 7.93157 26.7195 7.92302 26.7653 7.9237H29.7721C29.818 7.92288 29.8633 7.93116 29.9059 7.94836C29.9484 7.96556 29.9867 7.99132 30.0191 8.02379C30.0516 8.05627 30.0771 8.09497 30.0943 8.13756C30.1115 8.18015 30.1205 8.22567 30.1197 8.27159V11.2776C30.1205 11.3236 30.1115 11.3691 30.0943 11.4117C30.0771 11.4543 30.0516 11.493 30.0191 11.5254C29.9867 11.5579 29.9484 11.5834 29.9059 11.6006C29.8633 11.6178 29.818 11.6264 29.7721 11.6255H26.7653C26.7195 11.6261 26.6748 11.6175 26.6325 11.6002C26.5901 11.5828 26.5515 11.5572 26.5192 11.5247C26.4869 11.4923 26.4611 11.4536 26.444 11.4112C26.4269 11.3687 26.4188 11.3234 26.4196 11.2776V8.27159C26.4186 8.2258 26.427 8.18032 26.444 8.1378C26.461 8.09529 26.4869 8.05652 26.5192 8.02404C26.5515 7.99156 26.5891 7.96612 26.6315 7.94884ZM21.0818 7.94836C21.1244 7.93116 21.1696 7.92288 21.2156 7.9237H24.2243C24.2701 7.92315 24.3157 7.93177 24.3581 7.94909C24.4004 7.96641 24.4391 7.99208 24.4714 8.02453C24.5036 8.05698 24.5285 8.0956 24.5456 8.13805C24.5627 8.1805 24.5718 8.22584 24.571 8.27159V11.2776C24.5719 11.3234 24.5636 11.3689 24.5466 11.4114C24.5295 11.4539 24.5037 11.4925 24.4714 11.525C24.4391 11.5574 24.4005 11.5831 24.3581 11.6004C24.3157 11.6177 24.2701 11.6262 24.2243 11.6255H21.2156C21.1697 11.6262 21.1243 11.6176 21.0818 11.6004C21.0393 11.5831 21.001 11.5576 20.9685 11.5252C20.9361 11.4928 20.9106 11.454 20.8933 11.4114C20.8761 11.3689 20.8672 11.3235 20.8679 11.2776V8.27159C20.8671 8.22567 20.8751 8.18015 20.8923 8.13756C20.9095 8.09497 20.935 8.05627 20.9675 8.02379C21 7.99132 21.0392 7.96556 21.0818 7.94836ZM15.533 7.94884C15.5755 7.93157 15.621 7.92302 15.6668 7.9237H18.6746C18.7204 7.92315 18.766 7.93177 18.8084 7.94909C18.8507 7.96641 18.8894 7.99208 18.9217 8.02453C18.9539 8.05698 18.9788 8.0956 18.9959 8.13805C19.013 8.1805 19.0221 8.22584 19.0213 8.27159V11.2776C19.0222 11.3234 19.0139 11.3689 18.9969 11.4114C18.9798 11.4539 18.954 11.4925 18.9217 11.525C18.8894 11.5574 18.8508 11.5831 18.8084 11.6004C18.766 11.6177 18.7204 11.6262 18.6746 11.6255H15.6668C15.6211 11.6261 15.5754 11.6175 15.533 11.6002C15.4907 11.5828 15.453 11.5572 15.4207 11.5247C15.3885 11.4923 15.3626 11.4536 15.3456 11.4112C15.3285 11.3687 15.3203 11.3234 15.3211 11.2776V8.27159C15.3202 8.2258 15.3285 8.18032 15.3456 8.1378C15.3626 8.09529 15.3875 8.05652 15.4198 8.02404C15.4521 7.99156 15.4906 7.96612 15.533 7.94884ZM9.98334 7.94884C10.0258 7.93157 10.0713 7.92302 10.1171 7.9237H13.1259C13.1716 7.92315 13.2173 7.93177 13.2596 7.94909C13.302 7.96641 13.3407 7.99208 13.3729 8.02453C13.4052 8.05698 13.4301 8.0956 13.4471 8.13805C13.4642 8.1805 13.4724 8.22584 13.4716 8.27159V11.2776C13.4725 11.3234 13.4642 11.3689 13.4471 11.4114C13.4301 11.4539 13.4052 11.4925 13.3729 11.525C13.3406 11.5574 13.3021 11.5831 13.2596 11.6004C13.2172 11.6177 13.1717 11.6262 13.1259 11.6255H10.1171C10.0714 11.6261 10.0257 11.6175 9.98334 11.6002C9.94098 11.5828 9.90232 11.5572 9.87006 11.5247C9.83779 11.4923 9.81292 11.4536 9.79584 11.4112C9.77876 11.3687 9.77062 11.3234 9.77142 11.2776V8.27159C9.77048 8.2258 9.77783 8.18032 9.79486 8.1378C9.81189 8.09529 9.83776 8.05652 9.87006 8.02404C9.90235 7.99156 9.94092 7.96612 9.98334 7.94884ZM1.96784 7.94884C2.01026 7.93157 2.05486 7.92302 2.10065 7.9237H7.57908C7.62484 7.92315 7.67051 7.93177 7.71286 7.94909C7.75522 7.96641 7.7929 7.99208 7.82517 8.02453C7.85743 8.05698 7.88328 8.0956 7.90036 8.13805C7.91744 8.1805 7.92558 8.22584 7.92478 8.27159V11.2776C7.92572 11.3234 7.91739 11.3689 7.90036 11.4114C7.88333 11.4539 7.85844 11.4925 7.82614 11.525C7.79385 11.5574 7.75528 11.5831 7.71286 11.6004C7.67045 11.6177 7.62487 11.6262 7.57908 11.6255H2.10065C2.0549 11.6261 2.0102 11.6175 1.96784 11.6002C1.92549 11.5828 1.88683 11.5572 1.85456 11.5247C1.8223 11.4923 1.79645 11.4536 1.77937 11.4112C1.76229 11.3687 1.75415 11.3234 1.75496 11.2776V8.27159C1.75401 8.2258 1.76234 8.18032 1.77937 8.1378C1.7964 8.09529 1.82227 8.05652 1.85456 8.02404C1.88686 7.99156 1.92543 7.96612 1.96784 7.94884ZM50.553 2.49288C50.5954 2.47561 50.64 2.46705 50.6858 2.46773H53.6955C53.7412 2.46719 53.7859 2.4758 53.8283 2.49312C53.8707 2.51045 53.9093 2.53611 53.9416 2.56856C53.9738 2.60101 53.9997 2.63963 54.0168 2.68209C54.0339 2.72454 54.042 2.76988 54.0412 2.81563V5.82461C54.0419 5.87019 54.033 5.91544 54.0158 5.95767C53.9986 5.99989 53.9739 6.03827 53.9416 6.07046C53.9093 6.10264 53.8706 6.12788 53.8283 6.14492C53.786 6.16196 53.7411 6.17039 53.6955 6.16958H50.6858C50.6402 6.17039 50.5952 6.16196 50.553 6.14492C50.5107 6.12788 50.472 6.10264 50.4397 6.07046C50.4074 6.03827 50.3826 5.99989 50.3655 5.95767C50.3483 5.91544 50.3394 5.87019 50.3401 5.82461V2.81563C50.3391 2.76984 50.3475 2.72436 50.3645 2.68184C50.3815 2.63933 50.4074 2.6008 50.4397 2.56832C50.472 2.53584 50.5106 2.51015 50.553 2.49288ZM45.1527 2.49288C45.1951 2.47561 45.2407 2.46705 45.2865 2.46773H48.2952C48.341 2.46719 48.3866 2.4758 48.429 2.49312C48.4713 2.51045 48.51 2.53611 48.5423 2.56856C48.5745 2.60101 48.5994 2.63963 48.6165 2.68209C48.6336 2.72454 48.6417 2.76988 48.6409 2.81563V5.82461C48.6416 5.87019 48.6336 5.91544 48.6165 5.95767C48.5993 5.99989 48.5736 6.03827 48.5413 6.07046C48.509 6.10264 48.4703 6.12788 48.428 6.14492C48.3857 6.16196 48.3408 6.17039 48.2952 6.16958H45.2865C45.2409 6.17039 45.1959 6.16196 45.1536 6.14492C45.1114 6.12788 45.0726 6.10264 45.0404 6.07046C45.0081 6.03827 44.9823 5.99989 44.9652 5.95767C44.948 5.91544 44.9401 5.87019 44.9408 5.82461V2.81563C44.9398 2.76984 44.9481 2.72436 44.9652 2.68184C44.9822 2.63933 45.0071 2.6008 45.0394 2.56832C45.0717 2.53584 45.1103 2.51015 45.1527 2.49288ZM39.7524 2.49264C39.795 2.47544 39.8402 2.46692 39.8862 2.46773H42.8959C42.9416 2.46719 42.9863 2.4758 43.0287 2.49312C43.071 2.51045 43.1097 2.53611 43.142 2.56856C43.1742 2.60101 43.2001 2.63963 43.2172 2.68209C43.2342 2.72454 43.2424 2.76988 43.2416 2.81563V5.82461C43.2422 5.87019 43.2333 5.91544 43.2162 5.95767C43.199 5.99989 43.1742 6.03827 43.142 6.07046C43.1097 6.10264 43.071 6.12788 43.0287 6.14492C42.9864 6.16196 42.9414 6.17039 42.8959 6.16958H39.8862C39.8405 6.17052 39.7948 6.16237 39.7524 6.14541C39.7099 6.12844 39.6716 6.10313 39.6391 6.07094C39.6066 6.03876 39.5812 6.00021 39.5639 5.95791C39.5466 5.91561 39.538 5.87032 39.5385 5.82461V2.81563C39.5377 2.7697 39.5457 2.72418 39.5629 2.6816C39.5801 2.63901 39.6056 2.60031 39.6381 2.56783C39.6706 2.53535 39.7098 2.50984 39.7524 2.49264ZM34.353 2.49288C34.3955 2.47561 34.441 2.46705 34.4868 2.46773H37.4956C37.5415 2.46692 37.5868 2.47544 37.6294 2.49264C37.6719 2.50984 37.7111 2.53535 37.7436 2.56783C37.7761 2.60031 37.8016 2.63901 37.8188 2.6816C37.836 2.72418 37.844 2.7697 37.8432 2.81563V5.82461C37.8438 5.87032 37.8352 5.91561 37.8178 5.95791C37.8005 6.00021 37.7751 6.03876 37.7426 6.07094C37.7102 6.10313 37.6718 6.12844 37.6294 6.14541C37.5869 6.16237 37.5413 6.17052 37.4956 6.16958H34.4868C34.4413 6.17039 34.3953 6.16196 34.353 6.14492C34.3108 6.12788 34.273 6.10264 34.2407 6.07046C34.2085 6.03827 34.1827 5.99989 34.1655 5.95767C34.1484 5.91544 34.1395 5.87019 34.1402 5.82461V2.81563C34.1392 2.76984 34.1475 2.72436 34.1646 2.68184C34.1816 2.63933 34.2075 2.6008 34.2398 2.56832C34.2721 2.53584 34.3106 2.51015 34.353 2.49288ZM28.9527 2.49288C28.9952 2.47561 29.0407 2.46705 29.0865 2.46773H32.0953C32.1412 2.46692 32.1874 2.47544 32.23 2.49264C32.2726 2.50984 32.3108 2.53535 32.3433 2.56783C32.3758 2.60031 32.4013 2.63901 32.4185 2.6816C32.4357 2.72418 32.4447 2.7697 32.4439 2.81563V5.82461C32.4444 5.87032 32.4358 5.91561 32.4185 5.95791C32.4012 6.00021 32.3748 6.03876 32.3423 6.07094C32.3099 6.10313 32.2715 6.12844 32.2291 6.14541C32.1866 6.16237 32.141 6.17052 32.0953 6.16958H29.0865C29.041 6.17039 28.996 6.16196 28.9537 6.14492C28.9114 6.12788 28.8727 6.10264 28.8404 6.07046C28.8082 6.03827 28.7824 5.99989 28.7652 5.95767C28.7481 5.91544 28.7402 5.87019 28.7408 5.82461V2.81563C28.7399 2.76984 28.7482 2.72436 28.7652 2.68184C28.7823 2.63933 28.8072 2.6008 28.8395 2.56832C28.8718 2.53584 28.9103 2.51015 28.9527 2.49288ZM23.5534 2.49288C23.5958 2.4756 23.6405 2.46705 23.6862 2.46773H26.6959C26.7417 2.46719 26.7864 2.4758 26.8288 2.49312C26.8711 2.51045 26.9098 2.53611 26.942 2.56856C26.9743 2.60101 27.0002 2.63963 27.0172 2.68209C27.0343 2.72454 27.0424 2.76988 27.0416 2.81563V5.82461C27.0423 5.87019 27.0334 5.91544 27.0163 5.95767C26.9991 5.99989 26.9743 6.03827 26.942 6.07046C26.9098 6.10264 26.871 6.12788 26.8288 6.14492C26.7865 6.16196 26.7415 6.17039 26.6959 6.16958H23.6862C23.6407 6.17025 23.5956 6.16177 23.5534 6.14467C23.5113 6.12757 23.4733 6.10214 23.4411 6.06997C23.4089 6.0378 23.384 5.99958 23.3669 5.95742C23.3498 5.91526 23.3408 5.8701 23.3415 5.82461V2.81563C23.3404 2.76989 23.349 2.72435 23.3659 2.68184C23.3828 2.63933 23.4079 2.60081 23.4401 2.56832C23.4724 2.53583 23.5111 2.51016 23.5534 2.49288ZM18.1521 2.49239C18.1948 2.4752 18.2409 2.46692 18.2869 2.46773H21.2956C21.3414 2.46719 21.3871 2.4758 21.4294 2.49312C21.4718 2.51045 21.5104 2.53611 21.5427 2.56856C21.575 2.60101 21.5999 2.63963 21.6169 2.68209C21.634 2.72454 21.6421 2.76988 21.6413 2.81563V5.82461C21.642 5.87019 21.6341 5.91544 21.6169 5.95767C21.5998 5.99989 21.574 6.03827 21.5417 6.07046C21.5095 6.10264 21.4707 6.12788 21.4285 6.14492C21.3862 6.16196 21.3412 6.17039 21.2956 6.16958H18.2869C18.2411 6.17065 18.1957 6.16256 18.1531 6.14565C18.1106 6.12875 18.0714 6.10339 18.0389 6.07119C18.0063 6.03899 17.9811 6.00052 17.9637 5.95815C17.9463 5.91579 17.9377 5.87041 17.9383 5.82461V2.81563C17.9376 2.76966 17.9454 2.72419 17.9627 2.6816C17.98 2.639 18.0063 2.60029 18.0389 2.56783C18.0714 2.53537 18.1095 2.50958 18.1521 2.49239ZM12.7528 2.49239C12.7955 2.4752 12.8406 2.46692 12.8866 2.46773H15.8944C15.9401 2.46719 15.9858 2.4758 16.0282 2.49312C16.0705 2.51045 16.1092 2.53611 16.1414 2.56856C16.1737 2.60101 16.1996 2.63963 16.2166 2.68209C16.2337 2.72454 16.2418 2.76988 16.241 2.81563V5.82461C16.2417 5.87019 16.2328 5.91544 16.2157 5.95767C16.1985 5.99989 16.1727 6.03827 16.1405 6.07046C16.1082 6.10264 16.0704 6.12788 16.0282 6.14492C15.9859 6.16196 15.9399 6.17039 15.8944 6.16958H12.8866C12.8408 6.17065 12.7954 6.16256 12.7528 6.14565C12.7103 6.12875 12.6721 6.10339 12.6395 6.07119C12.607 6.03899 12.5808 6.00052 12.5634 5.95815C12.546 5.91579 12.5374 5.87041 12.538 5.82461V2.81563C12.5373 2.76966 12.5461 2.72419 12.5634 2.6816C12.5807 2.639 12.606 2.60029 12.6386 2.56783C12.6711 2.53537 12.7102 2.50958 12.7528 2.49239ZM7.35252 2.49239C7.39516 2.4752 7.44131 2.46692 7.48728 2.46773H10.4931C10.539 2.46692 10.5843 2.47544 10.6269 2.49264C10.6695 2.50984 10.7087 2.53535 10.7411 2.56783C10.7736 2.60031 10.7991 2.63901 10.8163 2.6816C10.8335 2.72418 10.8416 2.7697 10.8407 2.81563V5.82461C10.8413 5.87032 10.8327 5.91561 10.8154 5.95791C10.798 6.00021 10.7726 6.03876 10.7402 6.07094C10.7077 6.10313 10.6693 6.12844 10.6269 6.14541C10.5844 6.16237 10.5388 6.17052 10.4931 6.16958H7.48728C7.4415 6.17065 7.39606 6.16256 7.3535 6.14565C7.31093 6.12875 7.27181 6.10339 7.23924 6.07119C7.20667 6.03899 7.18046 6.00052 7.16307 5.95815C7.14567 5.91579 7.13713 5.87041 7.13768 5.82461V2.81563C7.137 2.76966 7.14576 2.72419 7.16307 2.6816C7.18038 2.639 7.20668 2.60029 7.23924 2.56783C7.2718 2.53537 7.30988 2.50958 7.35252 2.49239ZM1.9532 2.49288C1.99561 2.47561 2.04119 2.46705 2.08698 2.46773H5.09572C5.14164 2.46692 5.1879 2.47544 5.23048 2.49264C5.27307 2.50984 5.31129 2.53535 5.34376 2.56783C5.37624 2.60031 5.40176 2.63901 5.41896 2.6816C5.43616 2.72418 5.44516 2.7697 5.44435 2.81563V5.82461C5.44489 5.87032 5.43629 5.91561 5.41896 5.95791C5.40162 6.00021 5.37525 6.03876 5.34279 6.07094C5.31032 6.10313 5.27196 6.12844 5.22951 6.14541C5.18706 6.16237 5.14143 6.17052 5.09572 6.16958H2.08698C2.04141 6.17039 1.99645 6.16196 1.95417 6.14492C1.91189 6.12788 1.87317 6.10264 1.84089 6.07046C1.80861 6.03827 1.78286 5.99989 1.7657 5.95767C1.74854 5.91544 1.74061 5.87019 1.74129 5.82461V2.81563C1.74034 2.76984 1.74867 2.72436 1.7657 2.68184C1.78273 2.63933 1.80763 2.6008 1.83992 2.56832C1.87221 2.53584 1.91078 2.51015 1.9532 2.49288ZM2 0C0.895431 0 0 0.89543 0 2V23C0 24.1046 0.89543 25 2 25H54C55.1046 25 56 24.1046 56 23V2C56 0.895431 55.1046 0 54 0H2Z" fill="#111111" />
</svg>