<svg xmlns="http://www.w3.org/2000/svg" width="130" height="32">
    <g fill="none" fill-rule="evenodd">
        <svg width="94" height="30" viewBox="0 0 133.56 22.56" xmlns="http://www.w3.org/2000/svg"><g id="svgGroup" stroke-linecap="round" fill-rule="evenodd" font-size="20pt" stroke="#ffffff" stroke-width="0.25mm" fill="#fff" style="stroke:#ffffff;stroke-width:0.25mm;fill:#fff"><path d="M 9.24 22.2 L 5.7 22.2 L 0 1.89 L 2.82 0.99 L 7.56 19.17 L 12.03 3.39 L 15.6 3.39 L 20.04 19.17 L 24.75 1.08 L 27.39 1.89 L 21.72 22.2 L 18.18 22.2 L 13.74 6.42 L 9.24 22.2 Z M 84.3 2.55 L 83.25 4.92 Q 81.99 4.23 80.685 3.78 Q 79.38 3.33 77.79 3.33 A 6.039 6.039 0 0 0 75.544 3.741 A 5.676 5.676 0 0 0 74.43 4.335 A 6.089 6.089 0 0 0 72.833 5.96 A 8.237 8.237 0 0 0 72.105 7.29 Q 71.364 8.981 71.265 11.326 A 17.493 17.493 0 0 0 71.25 12.06 A 13.654 13.654 0 0 0 71.379 13.986 Q 71.526 15.017 71.841 15.889 A 7.811 7.811 0 0 0 72.03 16.365 A 7.254 7.254 0 0 0 72.91 17.879 A 5.731 5.731 0 0 0 74.19 19.11 Q 75.57 20.07 77.37 20.07 A 6.829 6.829 0 0 0 79.049 19.871 A 5.65 5.65 0 0 0 80.355 19.365 A 12.108 12.108 0 0 0 81.256 18.83 Q 81.941 18.379 82.41 17.91 L 82.41 13.32 L 78.06 13.32 L 78.06 11.07 L 85.11 11.07 L 85.11 22.2 L 82.59 22.2 L 82.59 20.1 A 10.765 10.765 0 0 1 81.277 21.087 A 14.206 14.206 0 0 1 80.04 21.795 Q 78.54 22.56 76.71 22.56 A 7.971 7.971 0 0 1 73.916 22.08 A 7.353 7.353 0 0 1 72.39 21.3 A 8.066 8.066 0 0 1 70.011 18.811 A 10.185 10.185 0 0 1 69.42 17.715 Q 68.34 15.39 68.34 12.24 A 16.89 16.89 0 0 1 68.59 9.265 A 12.772 12.772 0 0 1 69.48 6.315 A 9.819 9.819 0 0 1 71.215 3.631 A 8.837 8.837 0 0 1 72.765 2.295 A 8.35 8.35 0 0 1 76.176 0.975 A 11.119 11.119 0 0 1 77.94 0.84 A 13.578 13.578 0 0 1 79.731 0.953 A 10.083 10.083 0 0 1 81.42 1.32 Q 82.95 1.8 84.3 2.55 Z M 102.09 15.51 L 91.17 15.51 A 7.226 7.226 0 0 0 91.512 17.018 Q 91.913 18.161 92.7 18.93 A 4.243 4.243 0 0 0 94.987 20.073 A 6.006 6.006 0 0 0 96.03 20.16 A 11.019 11.019 0 0 0 97.313 20.089 A 8.273 8.273 0 0 0 98.46 19.875 Q 99.54 19.59 100.53 19.14 L 101.16 21.45 A 12.231 12.231 0 0 1 99.86 21.938 A 15.559 15.559 0 0 1 98.73 22.245 A 11.674 11.674 0 0 1 97.202 22.491 A 15.608 15.608 0 0 1 95.7 22.56 A 8.495 8.495 0 0 1 93.376 22.258 A 6.332 6.332 0 0 1 90.375 20.415 A 7.056 7.056 0 0 1 88.813 17.553 Q 88.41 16.154 88.41 14.4 A 10.608 10.608 0 0 1 88.66 12.053 A 8.652 8.652 0 0 1 89.295 10.215 A 7.393 7.393 0 0 1 90.8 8.09 A 6.866 6.866 0 0 1 91.77 7.305 Q 93.36 6.24 95.46 6.24 A 8.566 8.566 0 0 1 97.101 6.389 Q 98.104 6.585 98.905 7.038 A 5.164 5.164 0 0 1 99.195 7.215 Q 100.68 8.19 101.43 9.84 A 8.456 8.456 0 0 1 102.158 12.799 A 10.03 10.03 0 0 1 102.18 13.47 A 22.561 22.561 0 0 1 102.093 15.479 A 20.779 20.779 0 0 1 102.09 15.51 Z M 57.93 16.83 L 57.93 9.51 L 55.23 9.51 L 55.23 7.17 L 57.99 7.17 L 58.56 2.25 L 60.63 2.25 L 60.63 7.17 L 64.95 7.17 L 64.95 9.51 L 60.63 9.51 L 60.63 17.04 A 6.468 6.468 0 0 0 60.68 17.879 Q 60.822 18.961 61.365 19.47 Q 62.1 20.16 63.12 20.16 Q 63.87 20.16 64.545 19.92 A 7.72 7.72 0 0 0 65.498 19.509 A 6.83 6.83 0 0 0 65.79 19.35 L 66.54 21.51 A 5.564 5.564 0 0 1 66.055 21.767 Q 65.573 21.994 64.92 22.215 Q 63.9 22.56 62.79 22.56 A 5.498 5.498 0 0 1 61.235 22.351 A 4.18 4.18 0 0 1 59.235 21.075 A 4.835 4.835 0 0 1 58.267 19.304 Q 58.038 18.575 57.965 17.694 A 10.433 10.433 0 0 1 57.93 16.83 Z M 40.02 7.86 L 40.02 6.6 L 42.48 6.6 L 42.48 18.42 A 3.645 3.645 0 0 0 42.51 18.911 Q 42.587 19.475 42.859 19.761 A 0.89 0.89 0 0 0 43.035 19.905 Q 43.59 20.25 44.25 20.25 L 43.68 22.35 Q 40.871 22.35 40.231 20.124 A 4.076 4.076 0 0 1 40.2 20.01 A 6.392 6.392 0 0 1 39.267 21.038 A 8.549 8.549 0 0 1 38.325 21.765 A 4.478 4.478 0 0 1 36.839 22.396 Q 36.234 22.538 35.528 22.557 A 8.162 8.162 0 0 1 35.31 22.56 Q 33.36 22.56 31.77 21.57 A 6.884 6.884 0 0 1 29.546 19.312 A 8.377 8.377 0 0 1 29.235 18.765 A 8.168 8.168 0 0 1 28.446 16.382 A 10.993 10.993 0 0 1 28.29 14.49 A 9.943 9.943 0 0 1 28.589 12.009 A 8.39 8.39 0 0 1 29.235 10.29 Q 30.18 8.43 31.845 7.335 A 6.689 6.689 0 0 1 35.203 6.253 A 8.216 8.216 0 0 1 35.67 6.24 A 6.775 6.775 0 0 1 37.108 6.387 A 5.611 5.611 0 0 1 38.115 6.705 A 7.801 7.801 0 0 1 39.401 7.393 A 6.631 6.631 0 0 1 40.02 7.86 Z M 116.46 7.86 L 116.46 6.6 L 118.92 6.6 L 118.92 18.42 A 3.645 3.645 0 0 0 118.95 18.911 Q 119.027 19.475 119.299 19.761 A 0.89 0.89 0 0 0 119.475 19.905 Q 120.03 20.25 120.69 20.25 L 120.12 22.35 Q 117.311 22.35 116.671 20.124 A 4.076 4.076 0 0 1 116.64 20.01 A 6.392 6.392 0 0 1 115.707 21.038 A 8.549 8.549 0 0 1 114.765 21.765 A 4.478 4.478 0 0 1 113.279 22.396 Q 112.674 22.538 111.968 22.557 A 8.162 8.162 0 0 1 111.75 22.56 Q 109.8 22.56 108.21 21.57 A 6.884 6.884 0 0 1 105.986 19.312 A 8.377 8.377 0 0 1 105.675 18.765 A 8.168 8.168 0 0 1 104.886 16.382 A 10.993 10.993 0 0 1 104.73 14.49 A 9.943 9.943 0 0 1 105.029 12.009 A 8.39 8.39 0 0 1 105.675 10.29 Q 106.62 8.43 108.285 7.335 A 6.689 6.689 0 0 1 111.643 6.253 A 8.216 8.216 0 0 1 112.11 6.24 A 6.775 6.775 0 0 1 113.548 6.387 A 5.611 5.611 0 0 1 114.555 6.705 A 7.801 7.801 0 0 1 115.841 7.393 A 6.631 6.631 0 0 1 116.46 7.86 Z M 47.7 17.31 L 47.7 0 L 50.4 0 L 50.4 17.04 Q 50.4 18.012 50.643 18.682 A 2.392 2.392 0 0 0 51.075 19.44 A 2.209 2.209 0 0 0 52.45 20.183 A 3.217 3.217 0 0 0 52.95 20.22 Q 53.52 20.22 54.075 20.085 A 6.658 6.658 0 0 0 54.514 19.963 Q 54.795 19.874 55.02 19.77 L 55.68 21.96 A 5.445 5.445 0 0 1 55.199 22.145 Q 54.817 22.273 54.345 22.38 A 7.145 7.145 0 0 1 53.398 22.526 A 9.154 9.154 0 0 1 52.59 22.56 A 6.259 6.259 0 0 1 51.123 22.394 A 5.263 5.263 0 0 1 50.1 22.035 A 3.805 3.805 0 0 1 48.503 20.605 A 4.757 4.757 0 0 1 48.345 20.34 Q 47.7 19.17 47.7 17.31 Z M 126.99 22.2 L 124.29 22.2 L 124.29 6.6 L 126.9 6.6 L 126.9 9.99 Q 127.29 9 127.95 8.145 Q 128.61 7.29 129.6 6.765 A 4.445 4.445 0 0 1 131.004 6.308 A 5.838 5.838 0 0 1 131.91 6.24 Q 132.36 6.24 132.81 6.285 A 5.692 5.692 0 0 1 133.126 6.325 Q 133.373 6.364 133.56 6.42 L 132.75 9.21 Q 132.206 8.981 131.47 8.97 A 4.979 4.979 0 0 0 131.4 8.97 A 3.887 3.887 0 0 0 129.411 9.524 A 4.682 4.682 0 0 0 129.285 9.6 Q 128.287 10.226 127.644 11.533 A 6.878 6.878 0 0 0 127.635 11.55 Q 127.106 12.632 127.011 14.198 A 11.727 11.727 0 0 0 126.99 14.91 L 126.99 22.2 Z M 39.78 18.21 L 39.78 9.84 Q 38.97 9.27 37.995 8.925 Q 37.02 8.58 35.94 8.58 A 4.777 4.777 0 0 0 34.449 8.806 A 4.207 4.207 0 0 0 33.405 9.315 Q 32.31 10.05 31.68 11.355 Q 31.05 12.66 31.05 14.4 A 7.67 7.67 0 0 0 31.208 15.986 A 6.103 6.103 0 0 0 31.68 17.385 A 5.281 5.281 0 0 0 32.612 18.749 A 4.709 4.709 0 0 0 33.42 19.425 Q 34.53 20.16 35.91 20.16 Q 37.05 20.16 38.07 19.605 Q 39.09 19.05 39.78 18.21 Z M 116.22 18.21 L 116.22 9.84 Q 115.41 9.27 114.435 8.925 Q 113.46 8.58 112.38 8.58 A 4.777 4.777 0 0 0 110.889 8.806 A 4.207 4.207 0 0 0 109.845 9.315 Q 108.75 10.05 108.12 11.355 Q 107.49 12.66 107.49 14.4 A 7.67 7.67 0 0 0 107.648 15.986 A 6.103 6.103 0 0 0 108.12 17.385 A 5.281 5.281 0 0 0 109.052 18.749 A 4.709 4.709 0 0 0 109.86 19.425 Q 110.97 20.16 112.35 20.16 Q 113.49 20.16 114.51 19.605 Q 115.53 19.05 116.22 18.21 Z M 91.14 13.32 L 99.69 13.32 A 7.307 7.307 0 0 0 99.569 11.944 Q 99.42 11.169 99.089 10.562 A 3.727 3.727 0 0 0 98.55 9.81 A 3.747 3.747 0 0 0 96.462 8.677 A 5.519 5.519 0 0 0 95.4 8.58 Q 93.66 8.58 92.52 9.795 Q 91.38 11.01 91.14 13.32 Z" vector-effect="non-scaling-stroke"/></g></svg>
        <path fill="#F3B53B" d="M114.2 10.6c.74 0 1.34-.39 1.43-.88l.72-8.24c0-.81-.95-1.48-2.15-1.48s-2.15.67-2.15 1.48l.73 8.24c.08.5.69.87 1.42.87m-4.45 2.58c.37-.64.34-1.36-.05-1.68l-6.77-4.74c-.7-.41-1.75.08-2.35 1.12-.6 1.04-.5 2.2.2 2.6l7.5 3.49c.47.17 1.1-.16 1.47-.8m8.9 0c.37.64 1 .97 1.48.8l7.49-3.49c.7-.4.8-1.56.21-2.6-.6-1.04-1.66-1.53-2.36-1.12l-6.77 4.74c-.38.32-.41 1.04-.04 1.68m-4.46 7.7c.74 0 1.34.39 1.43.88l.72 8.24c0 .81-.95 1.48-2.15 1.48s-2.15-.67-2.15-1.48l.73-8.24c.08-.5.69-.87 1.42-.87m4.45-2.57c.37-.64 1-.97 1.48-.8l7.49 3.49c.7.4.8 1.57.21 2.6-.6 1.04-1.66 1.53-2.36 1.12l-6.77-4.74c-.38-.32-.41-1.04-.04-1.67m-8.91 0c.37.63.34 1.35-.05 1.67l-6.77 4.74c-.7.4-1.75-.08-2.35-1.12-.6-1.04-.5-2.2.2-2.6l7.5-3.49c.47-.17 1.1.16 1.47.8M129.2 24h.07c.08 0 .15-.03.15-.1 0-.06-.04-.1-.14-.1h-.08v.2zm0 .36h-.16v-.65l.25-.02c.13 0 .18.02.23.05.04.03.07.08.07.14 0 .08-.06.13-.14.16.06.02.1.08.12.16.02.1.03.14.05.16h-.16c-.02-.02-.04-.08-.06-.15-.01-.07-.05-.1-.13-.1h-.08v.26zm.1-.86c-.3 0-.51.24-.51.53 0 .29.22.52.51.52.29 0 .5-.23.5-.52a.5.5 0 00-.5-.53zm0-.13c.38 0 .67.29.67.66 0 .37-.3.66-.67.66a.66.66 0 01-.68-.66c0-.37.3-.66.68-.66z" />
    </g>
</svg>